<svg width="670" height="316" viewBox="0 0 670 316" fill="none" xmlns="http://www.w3.org/2000/svg">
<g clip-path="url(#clip0_3_327)">
<path d="M199.912 260.245C197.612 279.529 189.154 297.172 180.132 314.167C179.834 314.745 179.527 315.315 179.212 315.894H85.4391C83.5426 315.367 81.6705 314.788 79.8063 314.167C69.2149 310.716 59.2158 305.452 50.1976 298.579C15.6985 271.981 2.42329 221.722 8.41942 176.687C12.1478 148.707 23.6231 120.14 45.9688 105.071C57.7672 97.1004 72.9224 94.5098 86.5042 97.4718C86.8596 97.5409 87.2147 97.6272 87.5776 97.7049C99.2629 100.52 109.673 107.515 115.597 118.785C126.249 139.035 119.906 164.122 114.669 186.661C109.447 209.2 106.615 236.178 121.77 252.801C116.767 237.041 121.705 218.242 133.657 207.585C142.687 199.545 155.26 196.532 166.728 199.027C167.825 199.278 168.907 199.563 169.972 199.908C172.546 200.715 175.029 201.827 177.372 203.224C195.247 213.906 202.486 238.509 199.912 260.245Z" fill="#F2F2F2"/>
<path d="M144.31 314.167C146.908 314.814 149.515 315.384 152.137 315.894H137.958C136.102 315.358 134.254 314.788 132.423 314.167C128.396 312.819 124.43 311.274 120.527 309.529C104.872 302.5 90.4505 291.947 79.5399 277.905C74.204 271.102 69.8466 263.485 66.6119 255.306C63.1043 246.061 60.8751 236.318 59.9947 226.385C58.0174 206.005 60.0349 185.063 63.8035 165.046C67.6927 144.299 73.9707 124.148 82.4937 105.054C83.5186 102.765 84.5784 100.491 85.6732 98.2317C85.7485 98.0457 85.8625 97.8805 86.0066 97.7488C86.1506 97.6171 86.3208 97.5224 86.5043 97.4718C86.8768 97.3945 87.2627 97.4783 87.5776 97.7049C87.9555 97.937 88.2358 98.3154 88.3604 98.7622C88.4851 99.209 88.4447 99.6899 88.2475 100.106C79.4598 118.444 72.7984 137.863 68.4115 157.93C64.1184 177.507 61.6812 197.991 62.5123 218.121C63.3031 236.929 67.8953 255.427 78.3133 270.807C87.8278 284.848 100.966 295.919 115.5 303.458C124.699 308.168 134.363 311.76 144.31 314.167Z" fill="white"/>
<path d="M175.427 315.894H171.247C170.779 315.324 170.327 314.745 169.883 314.167C160.362 301.786 153.911 287.037 151.128 271.282C147.749 251.62 150.378 231.317 158.625 213.38C160.926 208.35 163.638 203.547 166.728 199.027C167.825 199.278 168.907 199.563 169.972 199.908C161.844 211.431 156.377 224.848 154.018 239.062C151.912 252.382 152.612 266.036 156.066 279.03C159.52 292.023 165.641 304.027 173.983 314.167C174.451 314.745 174.935 315.324 175.427 315.894Z" fill="white"/>
<path d="M552.004 301.207C552.611 306.296 554.843 310.953 557.224 315.438C557.303 315.591 557.384 315.741 557.467 315.894H582.215C582.716 315.755 583.21 315.602 583.702 315.438C586.497 314.527 589.136 313.138 591.516 311.324C600.621 304.304 604.125 291.04 602.542 279.154C601.558 271.77 598.529 264.231 592.632 260.254C589.43 258.167 585.609 257.45 581.934 258.248C581.84 258.266 581.747 258.289 581.651 258.31C580.121 258.626 578.671 259.285 577.397 260.244C576.122 261.203 575.052 262.44 574.256 263.873C571.445 269.218 573.119 275.838 574.501 281.787C575.879 287.735 576.627 294.855 572.627 299.243C573.213 297.408 573.332 295.439 572.972 293.539C572.611 291.638 571.784 289.875 570.576 288.43C569.368 286.985 567.822 285.91 566.097 285.316C564.372 284.722 562.531 284.63 560.762 285.051C560.472 285.117 560.186 285.192 559.905 285.283C559.226 285.496 558.571 285.789 557.952 286.158C553.235 288.977 551.324 295.471 552.004 301.207Z" fill="#F2F2F2"/>
<path d="M566.678 315.438C565.992 315.609 565.304 315.759 564.612 315.894H568.354C568.844 315.752 569.332 315.602 569.815 315.438C570.878 315.082 571.925 314.674 572.955 314.214C577.133 312.399 580.843 309.536 583.772 305.868C585.18 304.072 586.33 302.062 587.184 299.903C588.11 297.464 588.698 294.892 588.93 292.271C589.355 286.851 589.016 281.394 587.925 276.082C586.899 270.607 585.242 265.288 582.992 260.249C582.722 259.645 582.442 259.045 582.153 258.449C582.133 258.4 582.103 258.356 582.065 258.321C582.027 258.286 581.982 258.261 581.934 258.248C581.836 258.228 581.734 258.25 581.651 258.31C581.551 258.371 581.477 258.471 581.444 258.589C581.411 258.707 581.422 258.834 581.474 258.943C583.793 263.783 585.551 268.908 586.709 274.204C587.901 279.399 588.425 284.743 588.266 290.09C588.181 295.062 586.73 299.898 584.096 303.994C581.534 307.684 578.163 310.643 574.282 312.612C571.854 313.855 569.303 314.803 566.678 315.438Z" fill="white"/>
<path d="M558.466 315.894H559.569C559.692 315.743 559.812 315.591 559.929 315.438C562.442 312.171 564.144 308.278 564.878 304.12C565.77 298.931 565.077 293.572 562.9 288.838C562.293 287.511 561.577 286.243 560.762 285.051C560.472 285.117 560.186 285.192 559.905 285.283C562.05 288.324 563.493 291.865 564.116 295.616C564.672 299.132 564.487 302.735 563.575 306.165C562.664 309.594 561.048 312.762 558.847 315.438C558.723 315.591 558.596 315.743 558.466 315.894Z" fill="white"/>
<path d="M328.934 184.354H251.478L250.657 158.87C250.621 157.765 250.81 156.665 251.209 155.646C251.609 154.627 252.211 153.712 252.972 152.966C253.734 152.219 254.638 151.658 255.621 151.321C256.605 150.983 257.646 150.878 258.671 151.013L303.745 156.919H303.751C310.433 156.938 316.836 159.791 321.556 164.853C326.277 169.914 328.93 176.772 328.934 183.923V184.354Z" fill="#E0CDBE"/>
<path d="M294.412 93.957H240.39C239.671 93.9568 238.96 94.1081 238.296 94.4022C237.632 94.6964 237.029 95.1276 236.521 95.6712C236.013 96.2148 235.61 96.8603 235.335 97.5706C235.06 98.2809 234.919 99.0423 234.919 99.8111V157.62C234.919 158.389 235.06 159.15 235.335 159.861C235.61 160.571 236.013 161.216 236.521 161.76C237.029 162.304 237.632 162.735 238.296 163.029C238.96 163.323 239.671 163.474 240.39 163.474H294.412C295.13 163.474 295.842 163.323 296.505 163.029C297.169 162.735 297.772 162.304 298.28 161.76C298.788 161.216 299.191 160.571 299.466 159.861C299.741 159.15 299.882 158.389 299.882 157.62V99.8111C299.882 99.0423 299.741 98.281 299.466 97.5706C299.191 96.8603 298.788 96.2148 298.28 95.6712C297.772 95.1275 297.169 94.6963 296.505 94.4022C295.842 94.1081 295.13 93.9568 294.412 93.957Z" fill="#CCCCCC"/>
<path d="M282.245 137.184L256.739 142.5C255.226 142.813 253.659 142.471 252.381 141.55C251.103 140.628 250.219 139.201 249.923 137.583L247.962 126.809C247.669 125.19 247.988 123.513 248.85 122.145C249.711 120.778 251.044 119.832 252.556 119.515L278.062 114.2C279.575 113.886 281.143 114.228 282.421 115.15C283.698 116.071 284.582 117.498 284.879 119.116L286.839 129.89C287.132 131.509 286.813 133.186 285.952 134.554C285.09 135.921 283.757 136.867 282.245 137.184Z" fill="#3F3D56"/>
<path d="M277.142 124.456L257.677 128.512C257.321 128.586 256.952 128.506 256.651 128.289C256.35 128.072 256.142 127.737 256.073 127.356C256.004 126.975 256.079 126.58 256.281 126.258C256.484 125.936 256.798 125.713 257.154 125.639L276.619 121.583C276.975 121.509 277.344 121.589 277.645 121.806C277.946 122.023 278.154 122.359 278.223 122.74C278.292 123.121 278.217 123.516 278.015 123.837C277.812 124.159 277.498 124.382 277.142 124.456Z" fill="white"/>
<path d="M273.359 130.463L263.29 132.561C262.934 132.635 262.565 132.555 262.265 132.338C261.964 132.121 261.756 131.785 261.686 131.404C261.617 131.023 261.692 130.628 261.895 130.306C262.098 129.985 262.411 129.762 262.768 129.688L272.836 127.59C273.012 127.553 273.193 127.554 273.369 127.592C273.545 127.63 273.713 127.705 273.862 127.813C274.01 127.92 274.138 128.058 274.237 128.218C274.337 128.378 274.405 128.558 274.44 128.747C274.474 128.935 274.473 129.129 274.437 129.318C274.402 129.506 274.332 129.685 274.231 129.844C274.131 130.004 274.002 130.14 273.852 130.247C273.703 130.353 273.535 130.426 273.359 130.463Z" fill="white"/>
<path d="M299.882 99.8111V107.495H234.919V99.8111C234.919 99.0423 235.06 98.281 235.335 97.5706C235.61 96.8603 236.013 96.2148 236.521 95.6712C237.029 95.1276 237.632 94.6964 238.296 94.4022C238.96 94.1081 239.671 93.9568 240.39 93.957H294.412C295.13 93.9568 295.842 94.1081 296.505 94.4022C297.169 94.6964 297.772 95.1276 298.28 95.6712C298.788 96.2148 299.191 96.8603 299.466 97.5706C299.741 98.281 299.882 99.0423 299.882 99.8111Z" fill="#B3B3B3"/>
<path d="M429.608 109.901C429.232 108.605 428.597 107.413 427.745 106.409C426.893 105.405 425.845 104.613 424.676 104.089C423.507 103.565 422.245 103.322 420.979 103.376C419.712 103.431 418.473 103.782 417.347 104.404L343.025 75.8696L339.752 95.7379L413.837 117.539C414.939 119.494 416.674 120.948 418.712 121.625C420.749 122.303 422.949 122.157 424.893 121.216C426.837 120.274 428.39 118.602 429.259 116.517C430.128 114.432 430.252 112.077 429.608 109.901Z" fill="#FFB8B8"/>
<path opacity="0.2" d="M429.608 109.901C429.232 108.605 428.597 107.413 427.745 106.409C426.893 105.405 425.845 104.613 424.676 104.089C423.507 103.565 422.245 103.322 420.979 103.376C419.712 103.431 418.473 103.782 417.347 104.404L343.025 75.8696L339.752 95.7379L413.837 117.539C414.939 119.494 416.674 120.948 418.712 121.625C420.749 122.303 422.949 122.157 424.893 121.216C426.837 120.274 428.39 118.602 429.259 116.517C430.128 114.432 430.252 112.077 429.608 109.901Z" fill="black"/>
<path d="M356.217 79.49L349.198 99.1104C348.999 99.6687 348.689 100.174 348.29 100.593C347.891 101.011 347.413 101.333 346.888 101.536C346.362 101.739 345.802 101.818 345.245 101.769C344.689 101.719 344.149 101.542 343.662 101.248L326.605 90.9752C323.942 89.8655 321.799 87.6712 320.645 84.8732C319.492 82.0752 319.422 78.9019 320.451 76.049C321.481 73.1961 323.525 70.8965 326.137 69.6542C328.748 68.4119 331.713 68.3283 334.382 69.4218L353.429 73.9423C353.974 74.0719 354.487 74.3258 354.933 74.6866C355.378 75.0474 355.745 75.5066 356.01 76.0331C356.275 76.5596 356.43 77.1409 356.466 77.7374C356.501 78.334 356.416 78.9317 356.217 79.49Z" fill="#E0CDBE"/>
<path d="M435.458 128.068L408.827 141.021L412.323 155.107C419.075 182.307 420.867 210.645 417.601 238.571L437.072 242.922L453.212 198.88L447.563 148.793L435.458 128.068Z" fill="#E0CDBE"/>
<path d="M487.711 193.267C470.213 193.267 455.954 206.879 455.262 223.924H520.159C519.467 206.879 505.208 193.267 487.711 193.267Z" fill="#3F3D56"/>
<path d="M474.09 196.205C473.179 119.262 432.23 126.341 432.23 126.341C432.23 126.341 432.996 150.29 433.364 151.035C459.458 203.868 416.392 265.806 361.573 254.412C360.54 254.197 359.547 253.979 358.594 253.758C351.648 252.206 345.516 247.881 341.444 241.663C337.372 235.444 335.666 227.8 336.674 220.284C342.074 173.879 315.215 174.7 315.215 174.7H275.941L255.546 155.058C254.826 154.365 253.958 153.87 253.019 153.619C252.079 153.367 251.096 153.366 250.156 153.615C249.216 153.864 248.347 154.355 247.625 155.047C246.904 155.738 246.351 156.608 246.016 157.58L243.393 165.201C243.393 165.201 204.657 169.519 207.885 210.107H219.86C219.831 211.26 219.875 212.414 219.99 213.561L309.365 212.783C314.604 212.738 319.229 217.281 319.25 222.887C319.255 224.252 319.004 225.604 318.509 226.862C318.015 228.12 317.289 229.259 316.374 230.21C315.459 231.161 314.374 231.905 313.184 232.397C311.995 232.889 310.724 233.119 309.45 233.073L295.04 232.559C290.602 253.717 301.496 267.966 313.5 276.925C324.802 285.238 338.213 289.646 351.928 289.555H391.073C441.914 289.555 450.791 243.786 450.791 243.786C477.421 231.696 474.09 196.205 474.09 196.205Z" fill="#3F3D56"/>
<path d="M485.29 314.598C510.36 314.598 530.683 292.85 530.683 266.023C530.683 239.195 510.36 217.447 485.29 217.447C460.22 217.447 439.896 239.195 439.896 266.023C439.896 292.85 460.22 314.598 485.29 314.598Z" fill="black"/>
<path d="M485.29 277.929C491.434 277.929 496.416 272.598 496.416 266.023C496.416 259.447 491.434 254.117 485.29 254.117C479.145 254.117 474.164 259.447 474.164 266.023C474.164 272.598 479.145 277.929 485.29 277.929Z" fill="white"/>
<path d="M256.103 314.598C284.961 314.598 308.356 289.564 308.356 258.682C308.356 227.801 284.961 202.766 256.103 202.766C227.244 202.766 203.85 227.801 203.85 258.682C203.85 289.564 227.244 314.598 256.103 314.598Z" fill="black"/>
<path d="M256.103 272.387C263.176 272.387 268.91 266.251 268.91 258.682C268.91 251.113 263.176 244.977 256.103 244.977C249.03 244.977 243.296 251.113 243.296 258.682C243.296 266.251 249.03 272.387 256.103 272.387Z" fill="white"/>
<path d="M408.902 144.849L399.321 116.999C398.821 115.548 398.594 114.005 398.652 112.46C398.709 110.914 399.051 109.396 399.657 107.992C400.263 106.588 401.121 105.325 402.184 104.276C403.246 103.227 404.49 102.412 405.847 101.878L433.317 91.0559C435.703 90.1155 438.24 89.6873 440.781 89.7958C443.322 89.9042 445.818 90.5473 448.127 91.6881C450.436 92.829 452.513 94.4454 454.238 96.4449C455.963 98.4445 457.303 100.788 458.182 103.342C458.974 105.634 459.379 108.059 459.377 110.503C459.367 113.606 458.711 116.668 457.456 119.466C456.201 122.264 454.38 124.727 452.124 126.678C450.495 128.077 448.663 129.182 446.701 129.95L408.902 144.849Z" fill="#3F3D56"/>
<path d="M458.974 110.503C458.971 113.543 458.332 116.544 457.103 119.285C455.874 122.026 454.087 124.437 451.872 126.341C448.474 125.382 445.312 123.642 442.606 121.243C439.9 118.844 437.714 115.844 436.201 112.45C434.688 109.055 433.884 105.35 433.845 101.589C433.806 97.8291 434.532 94.1049 435.974 90.6755C438.742 90.0314 441.61 90.0588 444.367 90.7558C447.123 91.4528 449.699 92.8016 451.905 94.7033C454.111 96.6049 455.891 99.0111 457.114 101.745C458.337 104.479 458.973 107.472 458.974 110.503Z" fill="#E0CDBE"/>
<path d="M214.744 215.72C220.984 215.72 226.042 209.147 226.042 201.039C226.042 192.931 220.984 186.359 214.744 186.359C208.504 186.359 203.446 192.931 203.446 201.039C203.446 209.147 208.504 215.72 214.744 215.72Z" fill="#E0CDBE"/>
<path d="M364.088 253.005H373.982L378.689 225.546L364.086 225.547L364.088 253.005Z" fill="#FFB8B8"/>
<path d="M361.564 249.549L381.048 249.548H381.049C382.679 249.548 384.294 249.891 385.801 250.559C387.307 251.227 388.676 252.206 389.829 253.439C390.982 254.673 391.897 256.138 392.521 257.75C393.145 259.362 393.466 261.09 393.466 262.835V263.267L361.565 263.268L361.564 249.549Z" fill="#2F2E41"/>
<path d="M375.572 241.735C375.456 241.735 375.341 241.729 375.225 241.718L361.533 240.651C360.979 240.596 360.444 240.405 359.97 240.094C359.496 239.783 359.095 239.36 358.798 238.857C358.501 238.354 358.316 237.785 358.257 237.193C358.198 236.601 358.267 236.003 358.459 235.444L376.783 191.39C376.914 190.997 376.967 190.579 376.94 190.163C376.913 189.747 376.805 189.342 376.624 188.973C376.444 188.599 376.192 188.27 375.884 188.008C375.577 187.746 375.221 187.557 374.84 187.453C366.223 185.043 344.116 178.625 324.978 171.116C316.779 167.899 311.615 163.249 309.63 157.297C307.013 149.45 310.885 142.294 311.051 141.993L311.181 141.758L329.189 143.51L348.711 145.287L391.493 169.836C395.077 171.91 397.8 175.354 399.119 179.48C400.438 183.606 400.256 188.113 398.609 192.102L378.885 239.432C378.6 240.118 378.135 240.7 377.547 241.109C376.959 241.517 376.273 241.735 375.572 241.735Z" fill="#2F2E41"/>
<path d="M332.32 56.3506C343.267 56.3506 352.141 46.8545 352.141 35.1405C352.141 23.4265 343.267 13.9304 332.32 13.9304C321.373 13.9304 312.499 23.4265 312.499 35.1405C312.499 46.8545 321.373 56.3506 332.32 56.3506Z" fill="#FFB8B8"/>
<path d="M358.439 255.596H368.333L373.04 228.137L358.437 228.138L358.439 255.596Z" fill="#FFB8B8"/>
<path d="M355.915 252.14L375.399 252.139H375.4C377.03 252.139 378.645 252.482 380.152 253.15C381.658 253.818 383.027 254.796 384.18 256.03C385.333 257.264 386.248 258.729 386.872 260.341C387.496 261.953 387.817 263.681 387.817 265.426V265.857L355.916 265.859L355.915 252.14Z" fill="#2F2E41"/>
<path d="M369.923 244.326C369.807 244.326 369.692 244.32 369.576 244.308L355.884 243.241C355.33 243.186 354.795 242.996 354.321 242.685C353.847 242.374 353.446 241.951 353.149 241.448C352.852 240.945 352.667 240.375 352.608 239.784C352.549 239.192 352.618 238.594 352.81 238.035L371.134 193.98C371.265 193.587 371.318 193.17 371.291 192.754C371.264 192.338 371.156 191.933 370.975 191.563C370.795 191.19 370.543 190.861 370.235 190.599C369.928 190.337 369.572 190.148 369.191 190.044C360.574 187.633 338.467 181.216 319.329 173.707C311.13 170.489 305.967 165.84 303.981 159.888C301.364 152.041 305.236 144.884 305.402 144.584L305.532 144.349L323.54 146.1L343.062 147.877L385.844 172.426C389.428 174.501 392.151 177.944 393.47 182.071C394.789 186.197 394.607 190.704 392.96 194.693L373.236 242.023C372.951 242.708 372.486 243.291 371.898 243.699C371.31 244.108 370.624 244.326 369.923 244.326Z" fill="#2F2E41"/>
<path d="M338.433 68.3776L317.451 60.6055C317.451 60.6055 304.279 71.4346 310.607 98.2989C313.91 112.162 312.948 126.795 307.863 140.027C307.251 141.664 306.545 143.259 305.749 144.803C305.749 144.803 329.152 175.028 350.941 152.575L342.468 108.965C342.468 108.965 355.783 80.0357 338.433 68.3776Z" fill="#E0CDBE"/>
<path d="M334.781 57.0719C331.96 52.5535 329.734 46.2881 332.839 41.989C335.905 37.7453 341.952 38.3705 346.648 36.4927C353.188 33.8772 356.98 25.6555 355.798 18.2924C354.615 10.9294 349.091 4.82562 342.511 2.32816C335.931 -0.1693 328.511 0.642933 322.067 3.51891C314.135 7.05928 307.331 13.9079 304.477 22.5832C301.624 31.2586 303.149 41.675 309.069 48.3431C315.415 55.492 325.374 57.3972 334.588 57.2816" fill="#2F2E41"/>
<path d="M316.343 18.5287C312.789 21.6254 307.365 20.25 303.55 17.5323C299.734 14.8146 296.638 10.9448 292.509 8.814C285.231 5.05753 276.431 7.55472 269.347 11.7157C262.263 15.8766 255.984 21.6251 248.501 24.8904C241.019 28.1557 231.47 28.3171 225.805 22.1515C224.41 26.4743 224.296 31.1523 225.478 35.547C226.66 39.9418 229.08 43.8393 232.409 46.7078C235.737 49.5763 239.811 51.2761 244.076 51.5752C248.34 51.8743 252.587 50.7583 256.236 48.3793C264.435 43.0352 268.964 31.8301 278.159 28.8805C283.248 27.2483 288.712 28.5629 293.855 29.9868C298.998 31.4107 304.36 32.9492 309.55 31.737C314.74 30.5249 319.595 25.5339 318.934 19.8934L316.343 18.5287Z" fill="#2F2E41"/>
<path d="M428.621 109.037C428.1 107.801 427.331 106.702 426.37 105.818C425.409 104.934 424.278 104.287 423.058 103.921C421.837 103.555 420.557 103.48 419.306 103.702C418.056 103.923 416.866 104.435 415.82 105.201L338.777 86.6974L337.819 106.846L413.852 118.699C415.171 120.493 417.06 121.707 419.161 122.111C421.261 122.514 423.426 122.079 425.247 120.888C427.067 119.697 428.417 117.833 429.038 115.649C429.66 113.464 429.512 111.112 428.621 109.037Z" fill="#FFB8B8"/>
<path d="M352.285 88.5484L347.582 108.946C347.449 109.526 347.2 110.069 346.852 110.537C346.505 111.005 346.067 111.387 345.569 111.658C345.071 111.929 344.524 112.081 343.966 112.105C343.408 112.13 342.851 112.025 342.335 111.798L324.224 103.856C321.451 103.108 319.069 101.214 317.6 98.5886C316.131 95.9636 315.696 92.8223 316.389 89.8539C317.082 86.8855 318.847 84.3325 321.297 82.7551C323.746 81.1777 326.681 80.7047 329.456 81.44L348.879 83.4111C349.435 83.4677 349.973 83.6519 350.457 83.9512C350.94 84.2504 351.358 84.6577 351.681 85.1452C352.004 85.6327 352.226 86.1891 352.33 86.7764C352.434 87.3636 352.419 87.968 352.285 88.5484V88.5484Z" fill="#E0CDBE"/>
<path d="M419.721 125.045C422.841 125.045 425.37 122.339 425.37 119C425.37 115.662 422.841 112.955 419.721 112.955C416.601 112.955 414.072 115.662 414.072 119C414.072 122.339 416.601 125.045 419.721 125.045Z" fill="#E0CDBE"/>
<path d="M669.882 315.03C669.882 315.259 669.796 315.478 669.645 315.64C669.494 315.802 669.289 315.893 669.075 315.894H1.6892C1.47517 315.894 1.26991 315.803 1.11857 315.641C0.967224 315.479 0.882202 315.259 0.882202 315.03C0.882202 314.801 0.967224 314.581 1.11857 314.419C1.26991 314.257 1.47517 314.167 1.6892 314.167H669.075C669.289 314.167 669.494 314.258 669.645 314.42C669.796 314.582 669.882 314.801 669.882 315.03Z" fill="#E0CDBE"/>
</g>
<defs>
<clipPath id="clip0_3_327">
<rect width="669" height="315.054" fill="white" transform="translate(0.882202 0.839478)"/>
</clipPath>
</defs>
</svg>
