<svg width="706" height="700" viewBox="0 0 706 700" fill="none" xmlns="http://www.w3.org/2000/svg">
<g clip-path="url(#clip0_3_60)">
<path d="M341.89 699.09C530.593 699.09 683.567 650.381 683.567 590.295C683.567 530.209 530.593 481.5 341.89 481.5C153.186 481.5 0.212158 530.209 0.212158 590.295C0.212158 650.381 153.186 699.09 341.89 699.09Z" fill="#F5F5F5"/>
<path d="M496.06 432.768C498.454 419.426 497.904 399.992 478.318 390.529C488.789 371.771 483.865 358.509 474.4 353.804C474.336 348.912 473.186 338.986 465.477 333.659C466.498 324.426 468.158 287.729 430.951 283.619C426.585 275.223 412.921 252.489 390.662 246.192V213.283C385.299 225.833 351.555 233.002 351.555 233.002C312.879 239.023 304.203 263.376 302.248 274.014C297.268 274.183 292.886 274.903 290.42 276.629C282.311 282.276 224.432 299.131 228.966 343.816C228.168 344.118 227.417 344.421 226.643 344.705C226.643 344.705 194.982 372.856 203.498 395.243L200.306 395.501C200.306 395.501 181.949 408.148 187.592 433.07C186.843 433.977 186.306 435.075 186.027 436.268C185.749 437.461 185.738 438.711 185.996 439.91L229.644 602.044C229.929 603.175 230.547 604.165 231.4 604.855C233.371 606.385 237.465 609.435 243.435 613.135L243.483 613.393L243.747 613.331C250.544 617.512 257.559 621.239 264.753 624.493V624.68L265.016 624.627C270.076 626.913 275.623 629.154 281.617 631.217V631.36H281.88C287.427 633.254 293.349 634.998 299.614 636.474V636.563H299.877C305.759 637.942 311.953 639.08 318.418 639.898H318.665C326.614 640.891 334.61 641.343 342.608 641.25H343.143C350.632 641.133 358.109 640.539 365.538 639.471H365.801V639.418C371.808 638.552 377.951 637.34 384.229 635.78L384.166 636.474L384.7 636.536L384.78 635.647C391.043 634.058 397.427 632.074 403.935 629.697H404.198V629.554C409.604 627.556 415.082 625.261 420.631 622.67L420.894 622.723V622.528C427.327 619.498 433.845 616.026 440.448 612.112L440.711 612.175L440.759 611.926C444.484 609.702 448.238 607.33 452.021 604.81C453.022 604.137 453.762 603.071 454.096 601.822L497.6 439.563C497.855 438.367 497.842 437.12 497.564 435.931C497.285 434.742 496.75 433.647 496.004 432.741L496.06 432.768Z" fill="url(#paint0_linear_3_60)"/>
<path d="M429.179 291.873C429.179 291.873 409.545 246.957 372.338 251.564C335.13 256.172 374.924 298.784 374.924 298.784C374.924 298.784 420.4 302.813 429.179 291.873Z" fill="#FFD5B5"/>
<path opacity="0.1" d="M429.179 291.873C429.179 291.873 409.545 246.957 372.338 251.564C335.13 256.172 374.924 298.784 374.924 298.784C374.924 298.784 420.4 302.813 429.179 291.873Z" fill="black"/>
<path d="M303.102 284.384C303.102 284.384 303.102 283.797 303.198 282.766C303.86 275.57 309.151 246.592 351.156 240.073C351.156 240.073 383.711 233.162 388.874 221.066V257.924C388.874 257.924 382.154 283.842 348.57 292.478C314.986 301.114 303.102 284.384 303.102 284.384Z" fill="#FFD5B5"/>
<path d="M205.437 396.675C205.437 396.675 181.119 413.378 198.199 446.198C215.278 479.018 486.539 446.198 486.539 446.198C486.539 446.198 504.097 405.889 472.588 391.489C441.079 377.09 205.437 396.675 205.437 396.675Z" fill="#784F69"/>
<path opacity="0.1" d="M469.834 357.629C469.771 352.915 468.661 343.398 461.231 338.222C462.212 329.327 463.825 293.955 427.958 289.997C423.744 281.903 410.591 259.952 389.13 253.93V222.187C383.966 234.283 351.411 241.194 351.411 241.194C314.14 247.002 305.776 270.465 303.9 280.711C299.111 280.871 294.881 281.6 292.503 283.228C284.69 288.671 228.91 304.912 233.244 347.979C232.493 348.263 231.751 348.566 231.009 348.868C231.009 348.868 187.033 388.003 218.917 409.625C218.917 409.625 233.595 441.013 276.485 416.82L276.621 416.723C292.774 421.89 336.056 432.732 361.747 411.057L363.59 409.5C373.806 416.287 398.013 428.694 418.588 411.057L418.764 410.906C426.745 419.275 442.986 429.931 462.508 408.175C485.884 382.15 481.343 363.375 469.834 357.629Z" fill="black"/>
<path d="M413.161 403.008C413.161 403.008 434.351 438.131 462.252 407.037C490.154 375.942 478.27 355.21 462.252 354.631C446.234 354.053 413.161 403.008 413.161 403.008Z" fill="#FFD5B5"/>
<path opacity="0.15" d="M413.161 403.008C413.161 403.008 434.351 438.131 462.252 407.037C490.154 375.942 478.27 355.21 462.252 354.631C446.234 354.053 413.161 403.008 413.161 403.008Z" fill="black"/>
<path d="M469.491 359.248C469.491 359.248 474.655 310.329 408.037 347.73C341.419 385.13 358.427 404.742 358.427 404.742C358.427 404.742 391.5 432.964 418.364 409.927C445.229 386.891 461.734 379.98 469.491 359.248Z" fill="#FFD5B5"/>
<path opacity="0.1" d="M469.491 359.248C469.491 359.248 474.655 310.329 408.037 347.73C341.419 385.13 358.427 404.742 358.427 404.742C358.427 404.742 391.5 432.964 418.364 409.927C445.229 386.891 461.734 379.98 469.491 359.248Z" fill="black"/>
<path d="M418.332 344.27C418.332 344.27 393.009 324.702 354.26 344.27C315.512 363.837 270.028 413.378 270.028 413.378C270.028 413.378 329.455 437.019 361.491 409.919C393.527 382.818 416.784 362.699 418.332 344.27Z" fill="#FFD5B5"/>
<path opacity="0.07" d="M418.332 344.27C418.332 344.27 393.009 324.702 354.26 344.27C315.512 363.837 270.028 413.378 270.028 413.378C270.028 413.378 329.455 437.019 361.491 409.919C393.527 382.818 416.784 362.699 418.332 344.27Z" fill="black"/>
<path d="M366.144 341.397C366.144 341.397 314.467 333.339 290.699 349.455C266.932 365.571 218.63 408.486 218.63 408.486C218.63 408.486 233.307 439.874 276.198 415.682C276.23 415.673 365.107 354.062 366.144 341.397Z" fill="#FFD5B5"/>
<path opacity="0.03" d="M366.144 341.397C366.144 341.397 314.467 333.339 290.699 349.455C266.932 365.571 218.63 408.486 218.63 408.486C218.63 408.486 233.307 439.874 276.198 415.682C276.23 415.673 365.107 354.062 366.144 341.397Z" fill="black"/>
<path d="M230.753 347.729C230.753 347.729 184.766 388.643 220.937 409.927C220.937 409.927 297.411 354.071 298.968 347.729C298.968 347.729 263.324 333.908 230.753 347.729Z" fill="#FFD5B5"/>
<path d="M331.004 282.081C331.004 282.081 300.516 276.326 292.248 282.081C283.979 287.835 221.974 305.695 234.369 354.64L252.949 347.187C252.949 347.187 288.632 297.05 331.004 282.081Z" fill="#FFD5B5"/>
<path opacity="0.1" d="M331.004 282.081C331.004 282.081 300.516 276.326 292.248 282.081C283.979 287.835 221.974 305.695 234.369 354.64L252.949 347.187C252.949 347.187 288.632 297.05 331.004 282.081Z" fill="black"/>
<path d="M381.644 289.57C381.644 289.57 359.943 267.112 311.881 287.844C263.819 308.577 247.809 346.004 247.809 346.004L319.894 352.052C319.894 352.052 360.454 287.266 381.644 289.57Z" fill="#FFD5B5"/>
<path opacity="0.07" d="M381.644 289.57C381.644 289.57 359.943 267.112 311.881 287.844C263.819 308.577 247.809 346.004 247.809 346.004L319.894 352.052C319.894 352.052 360.454 287.266 381.644 289.57Z" fill="black"/>
<path d="M415.228 292.443C415.228 292.443 380.606 279.777 353.774 297.05C326.941 314.323 317.061 348.299 317.061 348.299L359.951 345.995C359.951 345.995 393.527 287.266 415.228 292.443Z" fill="#FFD5B5"/>
<path opacity="0.03" d="M415.228 292.443C415.228 292.443 380.606 279.777 353.774 297.05C326.941 314.323 317.061 348.299 317.061 348.299L359.951 345.995C359.951 345.995 393.527 287.266 415.228 292.443Z" fill="black"/>
<path d="M460.704 339.093C460.704 339.093 472.588 271.719 394.046 292.451C394.046 292.451 349.408 336.22 361.914 348.308C374.421 360.395 460.704 339.093 460.704 339.093Z" fill="#FFD5B5"/>
<path opacity="0.1" d="M191.606 438.327L233.666 594.573C233.958 595.654 234.569 596.594 235.398 597.241C247.139 606.394 337.468 671.331 448.086 597.241C449.05 596.591 449.761 595.563 450.081 594.36L492.006 437.998C492.234 437.145 492.255 436.24 492.068 435.374C491.881 434.509 491.491 433.715 490.939 433.071C490.387 432.428 489.692 431.959 488.925 431.712C488.158 431.465 487.345 431.449 486.571 431.665L468.358 436.735C467.731 436.911 467.078 436.935 466.442 436.806L449.323 433.248C448.316 433.04 447.274 433.218 446.37 433.755L426.05 445.834C425.071 446.413 423.935 446.571 422.858 446.278L400.998 440.221C400.171 439.99 399.302 440.024 398.492 440.319L373.104 449.578C372.536 449.786 371.937 449.866 371.341 449.814C370.745 449.762 370.164 449.579 369.632 449.276L352.816 439.688C351.752 439.079 350.516 438.964 349.376 439.367L327.692 447.079C327.145 447.272 326.571 447.347 326 447.301L305.121 445.673C304.808 445.65 304.497 445.591 304.195 445.496L287.627 440.221C286.928 440 286.191 439.97 285.48 440.132L262.526 445.327C261.666 445.523 260.773 445.437 259.956 445.078L237.609 435.214C236.826 434.868 235.972 434.772 235.143 434.938L217.353 438.496C216.634 438.64 215.895 438.588 215.198 438.345L197.273 432.065C196.49 431.797 195.656 431.77 194.861 431.989C194.065 432.207 193.338 432.662 192.757 433.304C192.175 433.947 191.761 434.754 191.558 435.638C191.355 436.523 191.372 437.452 191.606 438.327Z" fill="black"/>
<path d="M191.606 439.474L233.666 595.72C233.958 596.801 234.569 597.741 235.398 598.389C247.139 607.541 337.468 672.478 448.086 598.389C449.05 597.738 449.761 596.711 450.081 595.507L492.006 439.145C492.234 438.292 492.255 437.387 492.068 436.522C491.881 435.657 491.491 434.862 490.939 434.219C490.387 433.576 489.692 433.107 488.925 432.86C488.158 432.613 487.345 432.596 486.571 432.812L468.374 437.909C467.747 438.085 467.094 438.109 466.458 437.98L449.339 434.422C448.332 434.214 447.29 434.393 446.386 434.929L426.066 447.008C425.087 447.587 423.951 447.745 422.874 447.452L401.022 441.369C400.195 441.138 399.326 441.171 398.516 441.467L373.128 450.725C372.56 450.933 371.961 451.013 371.365 450.961C370.769 450.909 370.188 450.727 369.656 450.423L352.84 440.817C351.776 440.208 350.54 440.093 349.4 440.497L327.715 448.208C327.169 448.401 326.595 448.477 326.023 448.431L305.121 446.803C304.808 446.78 304.497 446.72 304.195 446.625L287.627 441.351C286.928 441.13 286.191 441.099 285.48 441.262L262.526 446.474C261.666 446.671 260.773 446.584 259.956 446.225L237.609 436.361C236.826 436.015 235.972 435.92 235.143 436.085L217.353 439.643C216.634 439.787 215.895 439.735 215.198 439.492L197.273 433.213C196.49 432.944 195.656 432.918 194.861 433.136C194.065 433.354 193.338 433.809 192.757 434.452C192.175 435.095 191.761 435.901 191.558 436.786C191.355 437.67 191.372 438.599 191.606 439.474Z" fill="#E0CDBE"/>
<path opacity="0.5" d="M237.745 383.769L233.347 382.062L230.881 377.659L241.847 362.361L246.245 364.068L248.711 368.471L237.745 383.769Z" fill="white"/>
<path opacity="0.5" d="M445.995 409.687L441.589 407.979L439.131 403.577L450.089 388.279L454.487 389.977L456.953 394.38L445.995 409.687Z" fill="white"/>
<path opacity="0.5" d="M354.532 326.179L350.134 324.48L347.668 320.077L358.626 304.77L363.032 306.478L365.49 310.88L354.532 326.179Z" fill="white"/>
<path opacity="0.5" d="M379.217 382.444L374.963 384.543L370.462 383.209L369.081 363.686L373.335 361.587L377.837 362.921L379.217 382.444Z" fill="white"/>
<path opacity="0.5" d="M307.547 334.522L304.61 338.551L300.053 339.627L290.891 322.923L293.836 318.894L298.393 317.818L307.547 334.522Z" fill="white"/>
<path opacity="0.5" d="M302.384 381.741L299.439 385.77L294.889 386.847L285.727 370.143L288.664 366.114L293.221 365.038L302.384 381.741Z" fill="white"/>
<path opacity="0.5" d="M428.764 386.34L425.388 389.915L420.743 390.333L413.576 372.456L416.96 368.88L421.597 368.462L428.764 386.34Z" fill="white"/>
<path opacity="0.5" d="M405.738 325.076L406.88 320.042L410.599 316.929L425.236 327.762L424.095 332.796L420.376 335.918L405.738 325.076Z" fill="white"/>
<path opacity="0.5" d="M250.147 332.52L245.75 330.813L243.284 326.41L254.25 311.112L258.647 312.811L261.113 317.213L250.147 332.52Z" fill="#FD6F8D"/>
<path opacity="0.5" d="M305.52 303.756L304.443 298.713L306.454 294.026L323.924 296.098L325.002 301.15L322.991 305.837L305.52 303.756Z" fill="#FD6F8D"/>
<path opacity="0.5" d="M390.183 275.045L391.053 269.949L394.605 266.587L409.785 276.442L408.915 281.538L405.363 284.9L390.183 275.045Z" fill="#FD6F8D"/>
<path opacity="0.5" d="M356.336 249.332L360.877 248.176L365.059 250.462L363.024 269.913L358.482 271.061L354.3 268.775L356.336 249.332Z" fill="#FD6F8D"/>
<path opacity="0.5" d="M325.161 402.812L324.084 397.76L326.087 393.073L343.558 395.145L344.635 400.197L342.632 404.884L325.161 402.812Z" fill="#FD6F8D"/>
<path opacity="0.5" d="M260.563 406.503L257.809 402.314L258.017 397.137L274.833 391.454L277.594 395.643L277.379 400.828L260.563 406.503Z" fill="#FD6F8D"/>
<path opacity="0.5" d="M441.406 371.815L437.583 368.853L436.282 363.864L450.544 352.435L454.367 355.396L455.668 360.377L441.406 371.815Z" fill="#FD6F8D"/>
<path opacity="0.5" d="M320.493 375.844L316.67 372.883L315.361 367.902L329.623 356.464L333.446 359.426L334.755 364.406L320.493 375.844Z" fill="#FD6F8D"/>
<path opacity="0.1" d="M235.175 434.938L217.385 438.496C216.666 438.64 215.927 438.588 215.23 438.345L214.935 438.238L247.314 605.451L214.935 438.238L197.305 432.065C196.524 431.794 195.691 431.764 194.896 431.978C194.101 432.192 193.372 432.643 192.788 433.281C192.205 433.92 191.787 434.723 191.58 435.606C191.374 436.488 191.385 437.416 191.614 438.291L233.674 594.537C233.966 595.618 234.577 596.558 235.406 597.206C239.086 600.079 250.499 608.43 267.833 616.257L236.476 434.814C236.039 434.785 235.601 434.827 235.175 434.938Z" fill="black"/>
<path opacity="0.1" d="M486.587 431.683L468.374 436.753C467.747 436.928 467.094 436.953 466.458 436.824L449.339 433.266C448.811 433.16 448.271 433.16 447.743 433.266L417.814 614.443L447.727 433.275C447.258 433.367 446.806 433.541 446.386 433.791L426.066 445.869C425.139 446.418 424.07 446.591 423.041 446.358L401.716 621.185C413.874 616.686 425.663 611.033 436.952 604.285L469.587 436.406L436.944 604.232C440.637 602.038 444.361 599.69 448.118 597.188C449.082 596.538 449.793 595.51 450.113 594.306L492.038 437.944C492.253 437.094 492.264 436.196 492.069 435.339C491.875 434.483 491.482 433.698 490.93 433.064C490.378 432.43 489.687 431.969 488.924 431.726C488.162 431.484 487.356 431.469 486.587 431.683Z" fill="black"/>
<path d="M422.842 446.305L400.998 440.221C400.578 440.106 400.145 440.058 399.713 440.079L383.04 626.984C389.159 625.436 395.395 623.503 401.748 621.185L423.073 446.358L422.842 446.305Z" fill="#E0CDBE"/>
<g opacity="0.5">
<path opacity="0.5" d="M215.191 439.313L214.684 439.435L247.063 606.613L247.57 606.492L215.191 439.313Z" fill="white"/>
<path opacity="0.5" d="M261.523 446.701L261.01 446.784L283.884 623.903L284.398 623.821L261.523 446.701Z" fill="white"/>
<path opacity="0.5" d="M236.667 435.811L236.158 435.92L267.543 617.549L268.052 617.44L236.667 435.811Z" fill="white"/>
<path opacity="0.5" d="M286.822 440.993L286.305 441.043L301.203 628.915L301.719 628.864L286.822 440.993Z" fill="white"/>
<path opacity="0.5" d="M314.956 447.582L314.438 447.599L319.295 632.174L319.814 632.157L314.956 447.582Z" fill="white"/>
<path opacity="0.5" d="M342.011 443.224L341.492 443.227L342.594 633.481L343.113 633.478L342.011 443.224Z" fill="white"/>
<path opacity="0.5" d="M371.092 451.386L364.451 631.744L364.969 631.768L371.611 451.41L371.092 451.386Z" fill="white"/>
<path opacity="0.5" d="M399.502 440.974L382.617 628.843L383.133 628.9L400.019 441.032L399.502 440.974Z" fill="white"/>
<path opacity="0.5" d="M419.537 443.618L398.765 619.901L399.279 619.976L420.05 443.693L419.537 443.618Z" fill="white"/>
<path opacity="0.5" d="M447.529 433.999L417.494 615.478L418.004 615.583L448.039 434.104L447.529 433.999Z" fill="white"/>
<path opacity="0.5" d="M469.296 437.484L436.749 605.386L437.256 605.509L469.803 437.606L469.296 437.484Z" fill="white"/>
</g>
<path d="M39.7903 569.633C44.5789 567.854 51.7619 565.827 57.4205 566.547C62.7997 564.359 75.4577 558.649 84.1012 550.19C83.8492 541.813 84.0384 533.426 84.6678 525.073C89.0894 469.039 79.145 432.136 79.145 432.136C79.145 432.136 71.3395 403.968 72.1934 380.594C71.6906 381.652 71.3953 382.284 71.3953 382.284C70.709 362.121 64.5476 341.254 59.9345 328.26C59.7573 328.203 59.5839 328.131 59.4157 328.046L54.1562 314.403C53.7453 313.608 53.4185 312.764 53.1825 311.886L52.3844 309.724L52.6318 309.609C52.552 309.253 52.4642 308.879 52.3844 308.497C49.0882 292.958 46.5742 256.109 46.5742 256.109C37.7232 217.33 58.7134 193.316 58.7134 193.316L94.3329 159.153C94.156 159.597 94.0377 160.067 93.9818 160.549L94.2771 160.264C94.7799 158.663 95.3306 156.707 95.8733 154.536C94.6025 153.535 93.4116 152.413 92.3137 151.183C88.2648 146.92 85.4803 141.381 84.3327 135.307C83.4707 130.584 83.6383 125.719 83.8139 120.907L84.4045 104.435C84.4307 101.21 84.7246 97.994 85.2824 94.8291C87.972 81.7189 99.9915 72.5933 112.051 72.0152C115.89 71.8373 119.721 72.3799 123.544 72.7001C126.649 72.9839 129.768 73.0581 132.882 72.9224C133.236 72.9446 133.588 72.8419 133.887 72.6289C134.161 72.3277 134.318 71.9192 134.326 71.4904C134.387 70.7262 134.308 69.956 134.094 69.2267C133.88 68.4975 133.536 67.8242 133.081 67.2479C132.615 66.7907 132.072 66.4402 131.485 66.2161L132.347 66.4474C131.923 66.0775 131.445 65.7917 130.934 65.6024C134.015 66.4118 137.167 67.2568 139.817 69.1601C140.575 69.7157 141.272 70.3696 141.892 71.108C143.533 72.7126 144.599 74.9235 144.893 77.334C146.274 75.8309 147.599 74.1765 148.085 72.113C148.269 71.2835 148.269 70.4166 148.085 69.5871C148.293 69.8776 148.495 70.1741 148.692 70.4765C148.692 70.3875 148.692 70.2986 148.636 70.2097C150.888 73.3298 152.473 76.9794 153.273 80.8828C153.588 80.4601 153.824 79.972 153.968 79.4467C154.112 78.9215 154.16 78.3696 154.111 77.8232C154.287 78.428 154.454 79.0417 154.606 79.6643C154.678 79.2603 154.697 78.8469 154.662 78.4369C156.044 83.149 156.668 88.0961 156.505 93.0502C156.505 97.9955 154.542 105.689 149.785 107.423C149.546 107.512 149.291 107.583 149.035 107.646C151.706 112.268 153.305 117.557 153.69 123.037C154.076 128.518 153.234 134.02 151.241 139.049C149.249 144.078 146.168 148.477 142.274 151.852C138.38 155.228 133.795 157.473 128.931 158.388C128.856 158.981 128.782 159.612 128.707 160.282H128.516C128.388 161.616 128.284 163.022 128.205 164.489C129.401 165.798 130.711 166.972 132.115 167.994C136.077 170.629 140.499 172.288 145.085 172.859C150.584 173.329 155.93 175.099 160.767 178.053C166.45 181.611 172.739 186.761 174.694 193.031C177.983 203.5 196.052 219.714 208.215 221.733L212.525 221.457L212.836 221.35V221.439L213.889 221.368H213.953H214.233V221.439L215.326 221.368C215.326 221.368 215.438 221.929 215.581 222.925C221.687 220.594 234.64 214.102 251.496 197.06C270.284 178.071 295.639 181.806 305.416 184.199C305.749 184.281 306.051 184.474 306.283 184.752C306.515 185.03 306.665 185.381 306.714 185.757C306.762 186.132 306.707 186.516 306.555 186.856C306.403 187.196 306.162 187.476 305.863 187.659C301.921 190.078 295.791 193.591 292.918 193.983C292.918 193.983 298.84 200.814 292.551 204.46C291.797 204.873 290.956 205.045 290.12 204.955C289.284 204.866 288.487 204.519 287.818 203.953C284.793 201.489 276.381 207.075 264.202 209.984C264.202 209.984 229.82 249.634 212.764 255.771C212.364 256.621 211.925 257.446 211.447 258.244L210.394 258.146L210.338 258.244H210.194L210.066 259.489C210.066 259.489 183.529 257.933 174.95 247.197C174.336 246.587 173.773 245.918 173.266 245.196L182.492 374.59H182.404L182.492 375.818H175.708C175.117 391.747 175.726 407.702 177.528 423.518V507.836C177.528 507.836 177.879 515.263 164.048 526.069C149.505 537.318 135.491 549.392 122.059 562.242L120.383 563.861C122.929 589.654 128.252 637.755 132.69 639.552L129.952 640.085C134.669 646.711 147.958 664.891 152.02 665.398C156.992 666.012 160.304 674.631 152.02 676.481C144.374 678.188 124.501 680.412 102.817 671.073C101.249 670.394 99.9319 669.148 99.0752 667.536C98.2185 665.923 97.8723 664.037 98.092 662.179L99.6882 648.588C99.3839 648.777 99.1388 649.066 98.9859 649.415C97.8845 653.106 98.9859 644.488 98.9859 644.488C94.4442 628.214 90.8768 611.622 88.3072 594.822L71.9301 610.636C71.9301 610.636 71.5949 610.182 71.0282 609.364C67.0377 619.539 59.8547 640.325 61.4509 655.57C63.6617 676.498 42.6715 658.034 44.8822 645.724C46.67 635.763 38.6969 593.568 35.5843 577.825C35.246 576.121 35.4894 574.338 36.267 572.824C37.0447 571.309 38.3008 570.172 39.7903 569.633Z" fill="url(#paint1_linear_3_60)"/>
<path d="M211.28 228.181C211.28 228.181 226.923 225.175 250.108 201.738C268.464 183.194 293.205 186.849 302.783 189.18C303.122 189.236 303.435 189.413 303.677 189.684C303.919 189.955 304.076 190.305 304.126 190.683C304.175 191.062 304.114 191.447 303.951 191.784C303.788 192.12 303.532 192.389 303.222 192.551C299.367 194.908 293.381 198.341 290.58 198.732C290.58 198.732 296.358 205.403 290.22 208.97C289.484 209.372 288.663 209.539 287.847 209.451C287.03 209.363 286.252 209.024 285.599 208.471C282.646 206.07 274.426 211.522 262.542 214.359C262.542 214.359 216.164 267.85 205.382 258.831L211.28 228.181Z" fill="#FEC3BE"/>
<path d="M131.461 155.461C131.461 155.461 127.143 175.918 131.461 190.318L112.051 193.316L94.7958 183.71V171.08C94.7958 171.08 102.889 151.85 100.726 129.615L131.461 155.461Z" fill="#FEC3BE"/>
<path d="M76.4553 598.398C76.4553 598.398 62.4326 629.047 64.5954 649.477C66.7583 669.908 46.239 651.879 48.4178 639.863C50.1657 630.141 42.3761 588.934 39.3433 573.565C39.0097 571.903 39.2434 570.163 39.9989 568.683C40.7544 567.203 41.9775 566.089 43.4296 565.56C49.9183 563.185 60.7645 560.223 66.2236 564.724C74.3004 571.323 76.4553 598.398 76.4553 598.398Z" fill="#8B416F"/>
<path d="M129.849 632.045C129.849 632.045 148.205 658.487 153.042 659.092C157.878 659.697 161.134 668.111 153.042 669.908C145.579 671.571 126.169 673.75 104.996 664.624C103.463 663.961 102.175 662.742 101.339 661.165C100.502 659.587 100.165 657.742 100.383 655.926L103.423 630.239L129.849 632.045Z" fill="#8B416F"/>
<path d="M160.049 351.385L177.607 354C177.607 354 173.505 386.838 177.815 422.904V505.239C177.815 505.239 178.158 512.487 164.654 523.027C150.49 534.014 136.84 545.802 123.759 558.346L74.8192 605.593C74.8192 605.593 55.4013 579.15 58.0989 563.523C58.0989 563.523 90.4541 552.103 94.7719 533.469C97.246 522.796 109.792 513.902 120.064 508.254C133.297 500.969 140.511 484.417 136.888 468.478C136.289 465.775 135.363 463.174 134.135 460.749C125.507 443.921 113.104 406.058 113.104 406.058L136.832 355.574L160.049 351.385Z" fill="black"/>
<path opacity="0.05" d="M160.049 351.385L177.607 354C177.607 354 173.505 386.838 177.815 422.904V505.239C177.815 505.239 178.158 512.488 164.654 523.027C150.49 534.014 136.84 545.802 123.759 558.346L74.8192 605.593C74.8192 605.593 55.4013 579.15 58.0989 563.523C58.0989 563.523 90.4541 552.103 94.7719 533.469C97.246 522.796 109.792 513.902 120.064 508.254C133.297 500.969 140.511 484.417 136.888 468.478C136.289 465.775 135.363 463.174 134.135 460.749C125.507 443.921 113.104 406.058 113.104 406.058L136.832 355.574L160.049 351.385Z" fill="black"/>
<path d="M134.158 633.85C134.158 633.85 102.338 639.863 101.26 643.465C100.183 647.067 101.26 638.653 101.26 638.653C101.26 638.653 82.904 576.749 87.2377 522.058C91.5715 467.367 81.8425 431.336 81.8425 431.336C81.8425 431.336 70.5174 390.467 76.99 367.03C83.4627 343.594 151.414 353.804 151.414 353.804C151.414 353.804 127.686 415.673 128.229 445.14C128.229 445.14 125.531 534.083 120.678 544.302C120.678 544.302 128.229 631.449 134.158 633.85Z" fill="black"/>
<path d="M130.383 171.08C130.383 171.08 127.151 193.316 94.7878 183.701L116.337 366.399C116.337 366.399 178.892 368.8 178.358 360.386L165.436 249.821L130.383 171.08Z" fill="white"/>
<path opacity="0.1" d="M129.577 169.888C129.577 169.888 135.707 177.217 145.156 178.133C150.525 178.595 155.743 180.326 160.464 183.212C166.051 186.672 172.14 191.706 174.032 197.843C177.807 209.859 201.535 229.693 212.341 225.486L208.566 261.544C208.566 261.544 177.831 259.765 172.436 246.521L181.606 375.133H173.529C173.529 375.133 169.211 340.276 165.979 333.063C162.747 325.85 156.274 286.19 155.731 276.566C155.189 266.943 147.104 211.638 140.088 202.041L129.569 173.49L129.577 169.888Z" fill="black"/>
<path opacity="0.1" d="M129.577 171.694C129.577 171.694 136.76 178.427 146.234 179.334C151.603 179.799 156.821 181.533 161.542 184.421C167.128 187.881 173.218 192.915 175.109 199.052C178.884 211.069 202.612 230.903 213.419 226.696L209.643 262.753C209.643 262.753 178.908 260.975 173.513 247.731L182.715 376.325H174.607C174.607 376.325 170.289 341.468 167.056 334.255C163.824 327.041 157.351 287.382 156.809 277.758C156.266 268.134 148.181 212.83 141.166 203.233L129.569 175.287L129.577 171.694Z" fill="black"/>
<path d="M129.577 170.493C129.577 170.493 136.76 177.226 146.234 178.133C151.602 178.595 156.821 180.326 161.542 183.212C167.128 186.672 173.218 191.706 175.109 197.843C178.884 209.859 202.612 229.693 213.419 225.486L209.643 261.544C209.643 261.544 178.908 259.765 173.513 246.521L182.715 375.124H174.607C174.607 375.124 170.289 340.267 167.056 333.054C163.824 325.841 157.351 286.181 156.809 276.557C156.266 266.934 148.181 211.629 141.166 202.032L129.569 174.086L129.577 170.493Z" fill="#FD6F8D"/>
<path opacity="0.1" d="M102.106 147.35C102.809 141.658 101.404 138.1 100.758 131.42L131.493 157.267C131.493 157.267 130.759 160.762 130.2 165.868C128.667 166.144 127.116 166.284 125.563 166.286C114.804 166.286 107.127 156.974 102.106 147.35Z" fill="black"/>
<path d="M125.531 164.48C141.615 164.48 154.654 149.95 154.654 132.025C154.654 114.1 141.615 99.5697 125.531 99.5697C109.447 99.5697 96.408 114.1 96.408 132.025C96.408 149.95 109.447 164.48 125.531 164.48Z" fill="#FEC3BE"/>
<path opacity="0.1" d="M157.312 100.219C157.483 94.7403 156.669 89.2786 154.917 84.1559C155.39 84.9587 155.588 85.9241 155.475 86.876C155.362 87.8279 154.946 88.7029 154.303 89.3413C153.362 83.7577 150.788 78.6785 146.984 74.897C149.059 75.2705 150.121 78.1434 149.618 80.4203C149.115 82.6973 147.535 84.4494 146.018 86.0682C146.194 82.6261 144.159 79.4242 141.573 77.5297C138.987 75.6352 135.906 74.8614 132.897 74.0253C133.943 74.4393 134.837 75.2274 135.439 76.2668C136.041 77.3061 136.318 78.5382 136.226 79.771C136.218 80.1902 136.063 80.5894 135.795 80.8828C135.503 81.0932 135.16 81.1959 134.813 81.1763C131.774 81.3099 128.73 81.2386 125.699 80.9629C121.973 80.4954 118.226 80.2726 114.477 80.2958C102.697 80.8472 90.9649 89.7682 88.3391 102.532C87.7959 105.62 87.51 108.759 87.4852 111.906L86.9425 128.031C86.7749 132.728 86.6073 137.486 87.4533 142.093C88.2659 146.383 89.9183 150.421 92.2926 153.917C94.6669 157.413 97.7046 160.282 101.189 162.319C105.419 155.488 105.794 146.71 107.262 138.571C107.49 136.685 108.116 134.887 109.09 133.324C110.151 131.847 112.019 130.913 113.599 131.616C115.179 132.319 115.866 135.014 114.549 136.214C115.682 137.753 117.917 136.606 119.218 135.236C122.92 131.325 125.469 126.254 126.529 120.694C127.055 117.892 127.582 114.468 130.008 113.498C130.858 113.238 131.745 113.171 132.618 113.303C137.75 113.694 145.779 116.06 150.759 114.245C155.396 112.555 157.312 105.049 157.312 100.219Z" fill="black"/>
<path d="M156.777 99.6142C156.948 94.1354 156.134 88.6738 154.382 83.5511C154.855 84.3539 155.053 85.3192 154.94 86.2711C154.828 87.223 154.411 88.098 153.768 88.7365C152.827 83.1529 150.254 78.0737 146.449 74.2921C148.524 74.6657 149.586 77.5386 149.083 79.8155C148.58 82.0924 147 83.8446 145.484 85.4634C145.659 82.0213 143.624 78.8193 141.038 76.9249C138.452 75.0304 135.372 74.2566 132.363 73.4205C133.409 73.8345 134.303 74.6226 134.905 75.6619C135.507 76.7013 135.783 77.9334 135.691 79.1662C135.683 79.5854 135.529 79.9846 135.26 80.278C134.968 80.4884 134.625 80.5911 134.278 80.5715C131.239 80.7051 128.195 80.6338 125.164 80.3581C121.438 79.8905 117.691 79.6678 113.942 79.691C102.162 80.2424 90.4302 89.1634 87.8044 101.927C87.256 105.03 86.9675 108.183 86.9424 111.346L86.3678 127.427C86.2002 132.123 86.0326 136.881 86.8786 141.489C87.6912 145.779 89.3436 149.816 91.718 153.312C94.0923 156.808 97.1299 159.677 100.614 161.714C104.844 154.883 105.219 146.105 106.688 137.966C106.915 136.081 107.542 134.282 108.515 132.719C109.577 131.242 111.444 130.308 113.025 131.011C114.605 131.714 115.291 134.409 113.974 135.609C115.108 137.148 117.342 136.001 118.643 134.631C122.345 130.72 124.895 125.649 125.954 120.089C126.481 117.287 127.007 113.863 129.434 112.893C130.283 112.633 131.171 112.567 132.043 112.698C137.175 113.089 145.204 115.455 150.184 113.641C154.853 111.959 156.777 104.444 156.777 99.6142Z" fill="#4A4347"/>
<path opacity="0.1" d="M214.783 225.477C214.783 225.477 219.101 247.713 211.008 261.535L206.427 261.117L208.925 225.851L214.783 225.477Z" fill="black"/>
<path d="M213.706 225.477C213.706 225.477 218.024 247.713 209.931 261.535L205.35 261.117L207.848 225.851L213.706 225.477Z" fill="#FD6F8D"/>
<path opacity="0.1" d="M97.7568 164.783L62.9992 198.136C62.9992 198.136 42.5039 221.573 51.1314 259.436C51.1314 259.436 54.9064 314.723 59.2242 317.133C59.2242 317.133 74.3244 350.789 75.4018 382.64C75.4018 382.64 95.6259 337.279 104.796 364.913C113.966 392.548 135.268 396.461 135.268 396.461L123.376 232.993C123.376 232.993 93.447 174.993 97.7568 164.783Z" fill="black"/>
<path d="M96.6794 164.783L61.8979 198.136C61.8979 198.136 41.4025 221.573 50.03 259.436C50.03 259.436 53.8051 314.723 58.1228 317.133C58.1228 317.133 73.223 350.789 74.3004 382.64C74.3004 382.64 95.6019 334.859 104.772 362.503C113.942 390.146 134.166 396.461 134.166 396.461L122.299 232.993C122.299 232.993 92.3696 174.993 96.6794 164.783Z" fill="#FD6F8D"/>
<path d="M80.7731 305.713C80.7731 305.713 72.1455 299.104 58.1228 317.133L92.633 386.847L104.229 367.279C104.229 367.279 79.6956 313.522 80.7731 305.713Z" fill="#FEC3BE"/>
<path opacity="0.1" d="M89.1293 309.617C89.1293 309.617 70.0465 333.508 62.6002 329.674L55.7046 311.788L81.5792 299.398L89.1293 309.617Z" fill="black"/>
<path d="M89.1293 308.417C89.1293 308.417 70.0465 332.307 62.6002 328.509L55.7046 310.623L81.5792 298.233L89.1293 308.417Z" fill="#FD6F8D"/>
<path opacity="0.1" d="M103.064 362.788C103.064 362.788 93.9818 383.538 89.1293 384.748L96.1367 393.766L106.384 372.091L103.064 362.788Z" fill="black"/>
<path d="M103.607 363.383C103.607 363.383 94.5245 384.134 89.672 385.343L96.6794 394.327L106.895 372.722L103.607 363.383Z" fill="#4D4981"/>
<path opacity="0.1" d="M86.4317 235.119C86.4317 235.119 85.3542 278.39 89.664 294.613L86.4317 235.119Z" fill="black"/>
<path opacity="0.1" d="M173.8 243.506C173.8 243.506 167.328 241.105 167.328 235.092L173.8 243.506Z" fill="black"/>
<g opacity="0.5">
<path opacity="0.5" d="M534.401 244.564C534.353 250.248 534.96 255.504 536.604 259.623L538.2 285.416C538.2 285.416 538.599 285.167 539.326 284.776C538.36 294.559 539.054 312.481 556.293 315.852C556.679 315.739 557.041 315.54 557.355 315.265C558.544 312.597 559.609 309.863 560.547 307.074L560.747 307.145L560.547 308.248L561.824 308.692C555.607 323.706 557.036 354.943 558.416 358.002C558.999 359.283 559.438 363.054 559.765 367.332C560.375 375.64 560.107 383.999 558.967 392.237C558.169 397.92 557.929 404.893 560.563 407.793C565.352 413.058 564.817 453.447 564.817 453.447C565.146 454.357 565.517 455.247 565.927 456.115L564.282 456.373C564.282 456.373 564.282 472.178 566.94 483.296C568.472 489.691 566.302 498.025 564.187 503.949C561.26 511.918 560.616 520.7 562.343 529.093C563.899 536.333 567.132 543.555 573.86 545.93C588.76 551.195 591.953 523.694 591.953 523.694C591.953 523.694 591.418 502.624 591.953 499.68C592.12 498.79 592.887 496.264 593.876 493.222C597.472 482.126 598.835 470.283 597.867 458.535L597.252 451.135L594.363 451.597C594.315 450.832 594.275 450.032 594.235 449.196C594.195 448.36 594.164 447.755 594.132 446.999C594.1 446.243 594.068 445.469 594.036 444.668C594.004 443.868 593.972 443.059 593.948 442.231C593.948 441.816 593.935 441.398 593.908 440.977C593.788 437.188 593.685 433.141 593.597 429.139C593.597 427.36 593.525 425.581 593.501 423.847C593.501 422.548 593.461 421.259 593.445 420.013C593.445 419.598 593.445 419.183 593.445 418.768C593.445 416.723 593.397 414.766 593.389 412.96C593.389 412.599 593.389 412.243 593.389 411.893C593.389 411.193 593.389 410.523 593.389 409.883C593.389 409.563 593.389 409.248 593.389 408.94C593.389 408.326 593.389 407.748 593.389 407.161C593.389 406.574 593.389 406.094 593.389 405.622C593.389 405.151 593.389 404.733 593.389 404.306C593.389 402.109 593.469 401.131 593.549 401.94C593.812 404.608 594.61 420.672 593.549 400.161C592.687 383.627 606.047 344.207 611.227 329.63C612.879 330.582 614.479 331.646 616.016 332.814C617.787 355.814 615.353 399.903 614.571 412.862V412.916C614.507 413.921 614.459 414.695 614.419 415.326V415.433L614.38 416.073V416.251V416.438V416.536C614.38 416.536 607.46 464.565 607.46 475.656C607.46 484.221 603.669 496.611 601.929 501.841C599.399 503.068 597.348 504.331 597.348 504.331L597.883 548.234C597.883 548.234 592.033 569.891 613.31 575.157C634.588 580.422 625.545 553.499 625.545 553.499L623.949 534.181L631.395 504.331L629.304 503.86C633.726 488.117 645.57 444.802 644.7 435.267C643.726 424.594 648.507 412.96 649.361 410.986L649.488 410.683C644.923 400.188 658.802 344.865 665.131 320.993C673.024 316.795 678.747 313.522 678.747 313.522C678.747 313.522 678.587 313.193 678.308 312.633L678.747 312.383C675.347 305.276 672.611 297.798 670.582 290.068L671.037 289.552L670.694 288.476C671.779 287.31 672.37 286.626 672.37 286.626C672.37 286.626 687.797 289.552 684.078 281.36C680.359 273.169 681.421 260.903 681.421 260.903V215.916L688.867 218.647C702.874 221.217 705.38 203.784 705.308 190.416C705.329 185.171 704.992 179.932 704.302 174.744C704.302 174.744 693.663 84.0224 675.036 86.9486C657.589 89.6881 642.249 78.3123 640.374 76.8536C640.145 76.0709 639.94 75.3001 639.759 74.5411C640.802 73.2258 641.737 71.8089 642.553 70.3074C643.135 70.3074 643.726 70.2185 644.285 70.1473C644.285 69.9694 644.285 69.8004 644.285 69.6226L644.819 69.5603C644.763 67.5288 645.069 65.505 645.722 63.6069C646.374 61.7088 647.359 59.9744 648.618 58.5047C649.647 57.4109 650.827 56.5098 652.114 55.8364C654.692 54.4934 657.605 54.0575 660.135 52.6167C661.032 52.0952 661.842 51.4063 662.529 50.5799C664.126 48.9789 665.163 46.7464 664.612 44.5228C664.365 43.5356 663.814 42.6284 663.814 41.6055C663.814 40.1824 664.812 39.044 665.41 37.7899C667.166 34.1076 665.57 29.5004 663.375 26.1028C661.181 22.7051 658.363 19.5032 657.557 15.4296C657.23 13.7575 657.254 11.9964 656.759 10.3687C655.163 5.09442 649.049 3.52013 643.989 3.81365C638.929 4.10716 633.502 5.30789 629.129 2.53287C628.299 1.86192 627.405 1.29518 626.463 0.842951C625.358 0.552228 624.208 0.552228 623.103 0.842951C616.718 2.07926 610.836 5.61029 605.545 9.73725C603.41 11.3307 601.416 13.1475 599.591 15.1628C598.386 16.4374 597.315 17.8608 596.398 19.4054C594.243 23.1143 593.206 27.846 594.555 31.9997C595.317 34.2932 596.655 36.294 598.409 37.7632C596.302 40.8351 594.767 44.3455 593.894 48.0881C593.022 51.8306 592.829 55.7299 593.328 59.5565C593.827 63.3832 595.007 67.0601 596.8 70.3711C598.592 73.6822 600.96 76.5605 603.765 78.837C602.881 80.4516 601.877 81.9808 600.764 83.4087V83.1775C600.764 83.1775 584.538 92.2496 578.68 91.0756C572.966 89.9282 558.121 100.521 558.424 121.725C558.424 122.259 558.424 122.81 558.424 123.362L548.847 156.458C544.994 169.75 543.031 183.633 543.029 197.603C543.029 197.603 534.234 224.232 534.401 244.564ZM560.124 258.582L572.782 205.963V217.472L564.801 249.083C564.801 249.083 563.205 259.658 561.984 270.892L560.124 258.582Z" fill="url(#paint2_linear_3_60)"/>
</g>
<path d="M597.867 443.557L598.457 450.788C599.389 462.277 598.068 473.855 594.586 484.719C593.637 487.699 592.894 490.154 592.735 491.034C592.224 493.898 592.735 514.489 592.735 514.489C592.735 514.489 589.654 541.376 575.28 536.226C568.816 533.914 565.703 526.843 564.171 519.772C562.507 511.572 563.128 503.002 565.95 495.206C567.994 489.416 570.085 481.277 568.608 475.025C566.038 464.156 566.038 448.715 566.038 448.715L597.867 443.557Z" fill="#5A5773"/>
<path d="M613.262 319.437C613.262 319.437 593.246 373.781 594.275 393.793C595.305 413.805 594.531 398.08 594.275 395.51C593.82 390.929 594.275 445.318 595.816 451.544C595.816 451.544 574.769 468.701 566.557 445.825C566.557 445.825 567.068 406.361 562.455 401.211C559.917 398.382 560.164 391.569 560.914 386.011C562.022 377.969 562.289 369.812 561.712 361.702C561.401 357.522 560.97 353.84 560.412 352.586C558.871 349.153 557.331 310.258 566.573 299.389L613.262 319.437Z" fill="black"/>
<path opacity="0.1" d="M593.246 451.57C591.705 445.282 591.25 390.929 591.705 395.536C591.961 398.107 592.735 413.841 591.705 393.82C590.676 373.799 610.692 319.463 610.692 319.463L565.911 300.27C566.118 299.976 566.334 299.7 566.549 299.442L613.254 319.463C613.254 319.463 593.238 373.808 594.267 393.82C595.297 413.832 594.523 398.107 594.267 395.536C593.812 390.956 594.267 445.344 595.808 451.57C595.808 451.57 587.404 458.419 579.143 457.69C586.494 457.067 593.246 451.57 593.246 451.57Z" fill="black"/>
<path d="M630.709 495.615L623.526 524.788L625.066 543.662C625.066 543.662 633.79 569.971 613.262 564.822C592.735 559.672 598.377 538.512 598.377 538.512L597.867 495.615C597.867 495.615 606.079 490.465 609.671 491.043C613.262 491.621 630.709 495.615 630.709 495.615Z" fill="#5A5773"/>
<path d="M666.129 305.713C666.129 305.713 642.521 390.938 648.163 404.11C648.163 404.11 642.521 416.696 643.542 428.125C644.564 439.554 627.117 500.765 627.117 500.765L601.45 495.615C601.45 495.615 607.612 478.458 607.612 467.589C607.612 456.72 614.284 409.776 614.284 409.776C614.284 409.776 619.926 323.973 613.254 314.821L666.129 305.713Z" fill="black"/>
<g opacity="0.1">
<path opacity="0.1" d="M615.249 321.767C619.503 341.192 614.803 412.676 614.803 412.676C614.803 412.676 608.13 459.575 608.13 470.489C608.13 478.787 604.547 490.741 602.847 495.935L601.458 495.66C601.458 495.66 607.62 478.502 607.62 467.634C607.62 456.765 614.292 409.821 614.292 409.821C614.292 409.821 618.586 344.519 615.249 321.767Z" fill="black"/>
<path opacity="0.1" d="M648.163 404.11L648.036 404.404C647.996 404.11 647.956 403.799 647.932 403.515C648 403.717 648.077 403.916 648.163 404.11Z" fill="black"/>
<path opacity="0.1" d="M614.419 317.613C614.186 316.627 613.794 315.696 613.262 314.865L666.129 305.713C666.129 305.713 665.818 306.825 665.283 308.808L614.419 317.613Z" fill="black"/>
</g>
<path d="M542.941 274.823C542.941 274.823 535.239 306.842 558.336 311.432C558.711 311.323 559.062 311.129 559.366 310.863C559.366 310.863 572.71 281.689 562.447 270.251L542.941 274.823Z" fill="#A1616A"/>
<path d="M637.389 62.0358C637.389 62.0358 635.849 86.0504 652.784 97.4974C669.72 108.944 616.87 140.395 616.87 140.395L589.135 91.2091C589.135 91.2091 600.923 92.9257 608.106 70.0496L637.389 62.0358Z" fill="#A1616A"/>
<path opacity="0.1" d="M648.674 99.214C648.674 99.214 622.496 159.846 598.888 102.647L562.447 303.996C562.447 303.996 618.905 323.448 619.416 332.6C619.926 341.753 676.384 309.146 676.384 309.146C676.384 309.146 664.07 283.975 667.142 268.535C670.215 253.094 648.674 99.214 648.674 99.214Z" fill="black"/>
<path d="M648.674 98.0755C648.674 98.0755 622.496 158.708 598.888 101.509L562.447 302.849C562.447 302.849 618.905 322.283 619.424 331.444C619.942 340.605 676.392 307.99 676.392 307.99C676.392 307.99 664.078 282.819 667.15 267.378C670.223 251.938 648.674 98.0755 648.674 98.0755Z" fill="#E1E7EF"/>
<path d="M623.015 511.625C623.015 511.625 629.687 495.037 614.292 495.037C598.896 495.037 601.458 509.953 601.458 509.953L623.015 511.625Z" fill="#5A5773"/>
<path d="M588.114 468.728C588.114 468.728 594.275 450.992 578.872 450.423C563.468 449.854 571.17 466.433 571.17 466.433L588.114 468.728Z" fill="#5A5773"/>
<path opacity="0.1" d="M601.203 85.2054C601.203 85.2054 585.552 94.0997 579.901 92.9257C574.251 91.7517 559.374 102.647 560.396 124.385L551.122 156.849C547.412 169.852 545.527 183.416 545.535 197.06C545.535 197.06 532.19 238.241 539.373 256.545L540.914 281.716C540.914 281.716 552.694 274.254 565.009 276.54L561.928 255.949L575.783 197.603L598.88 135.254L601.203 85.2054Z" fill="black"/>
<path d="M601.203 84.0581C601.203 84.0581 585.552 92.9524 579.901 91.7783C574.251 90.6043 559.374 101.5 560.396 123.237L551.122 155.675C547.412 168.678 545.527 182.242 545.535 195.886C545.535 195.886 532.19 237.067 539.373 255.371L540.914 280.542C540.914 280.542 552.718 273.106 565.041 275.392L561.96 254.802L575.815 196.455L598.912 134.106L601.203 84.0581Z" fill="black"/>
<path opacity="0.1" d="M575.28 153.558V218.22L567.579 249.11C567.579 249.11 562.447 282.855 563.987 293.154C565.527 303.454 590.165 305.74 596.837 297.157C603.509 288.574 599.918 215.329 599.918 215.329L601.203 108.082L600.173 104.648L575.28 153.558Z" fill="black"/>
<path d="M574.251 150.694V215.329L566.549 246.219C566.549 246.219 561.417 279.964 562.958 290.263C564.498 300.563 589.135 302.849 595.808 294.266C602.48 285.683 598.888 212.438 598.888 212.438L600.173 105.262L574.251 150.694Z" fill="black"/>
<path opacity="0.1" d="M677.677 204.469L661.252 261.393L668.954 285.701C668.954 285.701 632.513 328.598 609.415 308.008C609.415 308.008 606.845 220.488 611.985 199.897C617.125 179.307 641.755 110.065 641.755 110.065L646.887 91.7606L674.086 108.918L677.677 204.469Z" fill="black"/>
<path d="M678.962 201.605V257.639C678.962 257.639 677.933 269.655 681.532 277.66C685.132 285.665 670.239 282.81 670.239 282.81C670.239 282.81 633.797 325.707 610.7 305.117C610.7 305.117 608.13 217.597 613.27 197.007C618.41 176.416 643.04 107.174 643.04 107.174L648.171 88.8699L675.371 106.027L678.962 201.605Z" fill="black"/>
<path d="M626.636 204.307L646.197 170.74L641.511 167.349L621.951 200.916L626.636 204.307Z" fill="#E6E6E6"/>
<path opacity="0.1" d="M624.433 207.484C627.901 201.472 628.311 194.878 625.349 192.756C622.387 190.634 617.174 193.787 613.706 199.799C610.238 205.811 609.828 212.405 612.79 214.527C615.752 216.649 620.965 213.496 624.433 207.484Z" fill="black"/>
<path d="M627.214 210.452C630.712 204.45 631.15 197.849 628.192 195.708C625.235 193.568 620.002 196.699 616.504 202.701C613.006 208.704 612.568 215.305 615.526 217.445C618.483 219.585 623.716 216.455 627.214 210.452Z" fill="#E6E6E6"/>
<path opacity="0.1" d="M626.21 209.726C629.052 204.848 629.408 199.484 627.006 197.745C624.603 196.006 620.351 198.55 617.508 203.428C614.666 208.306 614.31 213.67 616.712 215.409C619.115 217.148 623.367 214.603 626.21 209.726Z" fill="black"/>
<path opacity="0.1" d="M639.185 78.9083C639.185 78.9083 654.836 91.7783 672.801 88.9143C690.766 86.0504 701.03 174.718 701.03 174.718C701.03 174.718 707.702 220.479 686.145 216.476L638.435 198.741C638.435 198.741 648.698 186.725 647.158 171.284L670.255 181.584L669.225 132.39L639.185 78.9083Z" fill="black"/>
<path opacity="0.1" d="M700 173.579C700 173.579 706.673 219.34 685.116 215.338L637.381 197.603C637.381 197.603 647.645 185.586 646.104 170.146L669.202 180.446L700 173.579Z" fill="black"/>
<path d="M647.214 176.176C647.214 176.176 631.252 152.704 619.432 163.964C607.612 175.225 643.016 195.886 643.016 195.886L647.214 176.176Z" fill="#A1616A"/>
<path d="M639.185 77.7698C639.185 77.7698 654.836 90.6399 672.801 87.7759C690.766 84.9119 701.03 173.579 701.03 173.579C701.03 173.579 707.702 219.34 686.145 215.338L638.435 197.603C638.435 197.603 648.698 185.586 647.158 170.146L670.255 180.446L669.225 131.251L643.048 107.237L639.185 77.7698Z" fill="black"/>
<path opacity="0.1" d="M607.612 71.188L636.87 63.1832C636.87 63.1832 635.346 65.1043 637.126 72.62C632.417 78.6415 626.631 86.6374 618.905 86.6374C613.376 86.649 607.993 84.6609 603.565 80.9718C605.218 77.8774 606.574 74.5982 607.612 71.188Z" fill="black"/>
<path d="M619.416 85.49C633.591 85.49 645.083 72.6836 645.083 56.886C645.083 41.0884 633.591 28.2819 619.416 28.2819C605.24 28.2819 593.748 41.0884 593.748 56.886C593.748 72.6836 605.24 85.49 619.416 85.49Z" fill="#A1616A"/>
<path opacity="0.1" d="M609.703 44.4785C603.749 43.3489 597.204 40.4049 595.209 34.0543C593.932 29.9897 594.906 25.3646 596.989 21.7446C599.072 18.1247 602.137 15.3407 605.297 12.8503C610.429 8.83011 616.087 5.37913 622.265 4.1695C623.33 3.88572 624.44 3.88572 625.505 4.1695C626.431 4.59201 627.312 5.12903 628.131 5.77048C632.353 8.48324 637.604 7.30919 642.497 7.02458C647.389 6.73996 653.255 8.27867 654.796 13.4285C655.275 15.0205 655.243 16.7371 655.594 18.3737C656.392 22.3761 659.097 25.4891 661.18 28.8245C663.264 32.1599 664.868 36.6693 663.112 40.2626C662.513 41.4811 661.516 42.6018 661.516 43.9893C661.67 44.9755 661.938 45.9352 662.314 46.8443C663.04 49.7973 660.925 52.7768 658.483 54.1821C656.041 55.5874 653.231 56.0233 650.741 57.3307C648.411 58.6124 646.459 60.6131 645.119 63.0949C643.78 65.5767 643.108 68.4352 643.183 71.3304C640.917 71.6239 638.275 71.7751 636.742 69.8895C636.056 69.0445 635.721 67.9149 635.098 67.0166C634.3 65.8426 633.055 65.1488 632.034 64.206C626.662 59.2875 630.477 52.4922 627.437 47.1912C625.84 44.4607 623.302 45.2967 620.732 45.3412C617.04 45.4375 613.347 45.1487 609.703 44.4785Z" fill="black"/>
<path d="M610.205 43.8914C604.252 42.7618 597.707 39.8178 595.712 33.4673C594.435 29.4026 595.409 24.7776 597.492 21.1576C599.575 17.5376 602.639 14.7537 605.8 12.2633C610.932 8.24308 616.59 4.79209 622.768 3.58247C623.833 3.29868 624.943 3.29868 626.008 3.58247C626.934 4.00497 627.815 4.54199 628.634 5.18344C632.856 7.8962 638.107 6.72216 643 6.43754C647.892 6.15292 653.758 7.69163 655.298 12.8414C655.777 14.4335 655.745 16.1501 656.097 17.7867C656.895 21.7891 659.6 24.9021 661.683 28.2375C663.766 31.5728 665.371 36.0822 663.615 39.6755C663.016 40.8941 662.019 42.0147 662.019 43.4022C662.173 44.3884 662.441 45.3481 662.817 46.2573C663.543 49.2102 661.428 52.1898 658.986 53.5951C656.544 55.0004 653.734 55.4362 651.244 56.7437C648.913 58.0254 646.962 60.0261 645.622 62.5079C644.282 64.9897 643.61 67.8482 643.686 70.7433C641.419 71.0368 638.778 71.188 637.245 69.3024C636.559 68.4575 636.224 67.3279 635.601 66.4296C634.803 65.2555 633.558 64.5618 632.536 63.619C627.165 58.7004 630.98 51.9052 627.939 46.6042C626.343 43.8736 623.805 44.7097 621.235 44.7542C617.543 44.8505 613.85 44.5616 610.205 43.8914Z" fill="#4A4347"/>
<path opacity="0.1" d="M579.127 140.119C579.127 140.119 573.485 172.725 576.047 185.311C577.612 192.632 577.38 200.288 575.376 207.475" fill="black"/>
<path opacity="0.1" d="M670.359 153.843C670.359 153.843 672.817 175.58 668.723 180.152L670.359 153.843Z" fill="black"/>
<path d="M527.035 421.73C527.352 421.73 527.657 421.59 527.881 421.339C528.106 421.089 528.232 420.75 528.232 420.396C528.232 420.042 528.106 419.703 527.881 419.453C527.657 419.202 527.352 419.062 527.035 419.062C526.717 419.062 526.413 419.202 526.188 419.453C525.964 419.703 525.838 420.042 525.838 420.396C525.838 420.75 525.964 421.089 526.188 421.339C526.413 421.59 526.717 421.73 527.035 421.73Z" fill="black"/>
<path d="M314.341 200.815L281.089 185.693L278.978 191.457L312.231 206.58L314.341 200.815Z" fill="#E6E6E6"/>
<path opacity="0.1" d="M327.461 210.135C328.794 206.496 325.053 201.354 319.107 198.65C313.161 195.946 307.261 196.703 305.928 200.342C304.596 203.98 308.336 209.122 314.282 211.826C320.229 214.53 326.129 213.773 327.461 210.135Z" fill="black"/>
<path d="M328.091 210.41C329.423 206.772 325.683 201.63 319.737 198.926C313.791 196.222 307.89 196.979 306.558 200.618C305.225 204.256 308.966 209.398 314.912 212.102C320.858 214.806 326.758 214.049 328.091 210.41Z" fill="#E6E6E6"/>
<path opacity="0.1" d="M326.073 209.493C327.156 206.537 324.116 202.359 319.284 200.161C314.452 197.964 309.658 198.579 308.575 201.535C307.493 204.491 310.532 208.669 315.364 210.867C320.196 213.064 324.991 212.449 326.073 209.493Z" fill="black"/>
</g>
<defs>
<linearGradient id="paint0_linear_3_60" x1="341.81" y1="641.232" x2="341.81" y2="213.266" gradientUnits="userSpaceOnUse">
<stop stop-color="#808080" stop-opacity="0.25"/>
<stop offset="0.54" stop-color="#808080" stop-opacity="0.12"/>
<stop offset="1" stop-color="#808080" stop-opacity="0.1"/>
</linearGradient>
<linearGradient id="paint1_linear_3_60" x1="-180028" y1="501597" x2="-180028" y2="79942" gradientUnits="userSpaceOnUse">
<stop stop-color="#808080" stop-opacity="0.25"/>
<stop offset="0.54" stop-color="#808080" stop-opacity="0.12"/>
<stop offset="1" stop-color="#808080" stop-opacity="0.1"/>
</linearGradient>
<linearGradient id="paint2_linear_3_60" x1="-141545" y1="218979" x2="-178125" y2="218979" gradientUnits="userSpaceOnUse">
<stop stop-color="#808080" stop-opacity="0.25"/>
<stop offset="0.54" stop-color="#808080" stop-opacity="0.12"/>
<stop offset="1" stop-color="#808080" stop-opacity="0.1"/>
</linearGradient>
<clipPath id="clip0_3_60">
<rect width="705" height="698.469" fill="white" transform="translate(0.212158 0.620667)"/>
</clipPath>
</defs>
</svg>
