<svg width="811" height="671" viewBox="0 0 811 671" fill="none" xmlns="http://www.w3.org/2000/svg">
<g clip-path="url(#clip0_3_497)">
<path d="M653.597 655.078L108.159 164.598L193.451 0.0579834L793.159 651.05L653.597 655.078Z" fill="#F2F2F2"/>
<path d="M405.159 138.839C423.385 138.839 438.159 124.202 438.159 106.145C438.159 88.0885 423.385 73.4508 405.159 73.4508C386.934 73.4508 372.159 88.0885 372.159 106.145C372.159 124.202 386.934 138.839 405.159 138.839Z" fill="#F2F2F2"/>
<path d="M550.159 184.413C556.234 184.413 561.159 179.534 561.159 173.515C561.159 167.496 556.234 162.617 550.159 162.617C544.084 162.617 539.159 167.496 539.159 173.515C539.159 179.534 544.084 184.413 550.159 184.413Z" fill="#8E7C6D"/>
<path d="M550.159 270.607C556.234 270.607 561.159 265.728 561.159 259.709C561.159 253.69 556.234 248.811 550.159 248.811C544.084 248.811 539.159 253.69 539.159 259.709C539.159 265.728 544.084 270.607 550.159 270.607Z" fill="#8E7C6D"/>
<path d="M660.159 292.404C666.234 292.404 671.159 287.524 671.159 281.505C671.159 275.487 666.234 270.607 660.159 270.607C654.084 270.607 649.159 275.487 649.159 281.505C649.159 287.524 654.084 292.404 660.159 292.404Z" fill="#8E7C6D"/>
<path d="M405.159 670.865C628.834 670.865 810.159 661.993 810.159 651.05C810.159 640.107 628.834 631.235 405.159 631.235C181.484 631.235 0.15918 640.107 0.15918 651.05C0.15918 661.993 181.484 670.865 405.159 670.865Z" fill="#F2F2F2"/>
<path d="M642.075 329.215C637.482 321.709 621.436 321.903 621.436 321.903C606.827 343.407 571.71 320.564 571.71 320.564C545.628 332.125 529.714 295.284 529.714 295.284C494.619 290.084 500.041 253.567 500.041 253.567C482.58 250.094 487.479 218.818 487.479 218.818C487.479 218.818 497.168 210.945 492.4 205.186C489.369 201.525 489.181 191.017 489.446 183.843C466.661 176.978 442.974 173.498 419.159 173.515C286.059 173.515 178.159 280.415 178.159 412.283C178.159 544.15 286.059 651.05 419.159 651.05C552.26 651.05 660.159 544.15 660.159 412.283C660.188 383.635 655.001 355.216 644.847 328.393C643.61 329.776 642.651 330.156 642.075 329.215Z" fill="#8E7C6D"/>
<path opacity="0.1" d="M642.075 329.215C637.482 321.709 621.436 321.903 621.436 321.903C606.827 343.407 571.71 320.564 571.71 320.564C545.628 332.125 529.714 295.284 529.714 295.284C494.619 290.084 500.041 253.567 500.041 253.567C482.58 250.094 487.479 218.818 487.479 218.818C487.479 218.818 497.168 210.945 492.4 205.186C489.369 201.525 489.181 191.017 489.446 183.843C466.661 176.978 442.974 173.498 419.159 173.515C286.059 173.515 178.159 280.415 178.159 412.283C178.159 544.15 286.059 651.05 419.159 651.05C552.26 651.05 660.159 544.15 660.159 412.283C660.188 383.635 655.001 355.216 644.847 328.393C643.61 329.776 642.651 330.156 642.075 329.215Z" fill="black"/>
<path d="M627.793 328.272C623.424 321.133 608.164 321.318 608.164 321.318C594.27 341.77 560.872 320.045 560.872 320.045C536.067 331.04 520.932 296.002 520.932 296.002C487.554 291.057 492.711 256.327 492.711 256.327C476.105 253.024 480.765 223.279 480.765 223.279C480.765 223.279 489.979 215.792 485.444 210.315C482.562 206.833 482.383 196.839 482.634 190.016C460.965 183.487 438.438 180.177 415.789 180.194C289.203 180.194 186.586 281.861 186.586 407.274C186.586 532.686 289.203 634.353 415.789 634.353C542.374 634.353 644.991 532.686 644.991 407.274C645.019 380.028 640.086 353.001 630.429 327.49C629.252 328.805 628.34 329.167 627.793 328.272Z" fill="#E0CDBE"/>
<path d="M388.421 314.435C388.421 314.435 348.896 289.516 311.168 314.435C297.963 323.157 291.361 335.585 288.357 348.057C283.016 370.233 288.873 393.611 303.156 411.486L388.508 518.3C391.435 522.021 395.36 524.851 399.834 526.466C404.308 528.081 409.15 528.417 413.807 527.433C413.992 527.392 414.178 527.35 414.365 527.305C417.738 526.483 420.905 524.985 423.671 522.904C426.438 520.823 428.745 518.203 430.45 515.206L489.809 411.932C500.79 393.124 505.291 371.286 502.632 349.719C499.848 328.48 489.554 306.091 460.284 298.415C460.284 298.416 426.149 284.176 388.421 314.435Z" fill="#F9A826"/>
<path opacity="0.1" d="M388.421 314.435C388.421 314.435 348.896 289.516 311.168 314.435C297.963 323.157 291.361 335.585 288.357 348.057C283.016 370.233 288.873 393.611 303.156 411.486L388.508 518.3C391.435 522.021 395.36 524.851 399.834 526.466C404.308 528.081 409.15 528.417 413.807 527.433C413.992 527.392 414.178 527.35 414.365 527.305C417.738 526.483 420.905 524.985 423.671 522.904C426.438 520.823 428.745 518.203 430.45 515.206L489.809 411.932C500.79 393.124 505.291 371.286 502.632 349.719C499.848 328.48 489.554 306.091 460.284 298.415C460.284 298.416 426.149 284.176 388.421 314.435Z" fill="black"/>
<path d="M388.824 320.449C388.824 320.449 351.747 297.073 316.355 320.449C303.968 328.631 297.774 340.289 294.956 351.989C289.946 372.791 295.441 394.721 308.839 411.489L388.905 511.688C391.651 515.179 395.332 517.833 399.529 519.349C403.726 520.864 408.269 521.178 412.637 520.256C412.811 520.218 412.985 520.178 413.161 520.136C416.325 519.365 419.296 517.96 421.891 516.008C424.485 514.055 426.649 511.598 428.249 508.786L483.932 411.908C494.233 394.265 498.456 373.779 495.961 353.548C493.35 333.624 483.693 312.622 456.236 305.422C456.236 305.422 424.215 292.064 388.824 320.449Z" fill="#F9A826"/>
<path opacity="0.1" d="M390.266 360.531C390.266 360.531 372.228 349.158 355.009 360.531C349.662 364.116 345.929 369.617 344.598 375.876C343.445 380.893 343.454 386.104 344.623 391.118C345.793 396.131 348.094 400.817 351.352 404.825C351.352 404.825 397.535 458.7 401.853 457.742C401.937 457.724 402.022 457.704 402.107 457.684C405.218 456.944 436.539 405.028 436.539 405.028C441.551 396.444 443.606 386.477 442.392 376.634C441.121 366.941 436.423 356.723 423.065 353.22C423.065 353.22 407.485 346.721 390.266 360.531Z" fill="black"/>
<path opacity="0.1" d="M277.593 445.676L282.649 454.025L292.76 470.722L296.131 482.41L289.39 492.428L297.816 512.465L301.187 524.153L294.446 530.831L307.928 540.85" fill="black"/>
<path opacity="0.1" d="M525.334 372.209V385.567L516.907 407.273L511.851 418.961L520.278 433.989L523.649 444.007L537.131 449.016L542.187 457.365V477.401" fill="black"/>
<path opacity="0.1" d="M611.285 385.567L597.803 393.916C597.803 393.916 591.061 397.255 591.061 398.925V412.283" fill="black"/>
<path opacity="0.1" d="M550.614 338.816L553.984 355.512L550.614 367.201" fill="black"/>
<path opacity="0.1" d="M564.096 489.089L553.984 504.116L542.187 514.134V520.813L548.928 529.162V539.18L543.872 549.198" fill="black"/>
<path opacity="0.1" d="M468.033 205.24H451.18L437.697 216.927L415.788 228.615L405.676 236.964V240.304L383.767 251.991L377.026 263.679" fill="black"/>
<path opacity="0.1" d="M286.019 233.625L270.852 263.679L265.796 275.367L253.998 290.394C253.998 290.394 245.572 305.422 243.886 307.091C242.201 308.761 230.404 312.101 230.404 312.101L247.257 328.798" fill="black"/>
<path opacity="0.1" d="M218.607 348.834L215.236 370.54L218.607 383.898V407.273L208.495 450.686L218.607 462.373L230.404 477.401" fill="black"/>
<path opacity="0.1" d="M243.886 358.852L253.998 363.861L260.739 385.567L274.222 382.228L280.963 393.916" fill="black"/>
<path opacity="0.1" d="M429.271 575.914L456.236 572.574L468.033 560.886H484.886" fill="black"/>
<path opacity="0.1" d="M265.795 540.849L275.907 552.537L292.76 557.546L304.558 560.886L307.928 579.252" fill="black"/>
<path opacity="0.1" d="M464.662 484.08L476.46 475.731L481.516 462.373L491.628 460.704L496.683 444.007" fill="black"/>
<path d="M161.997 64.5342H190.215C199.124 64.5342 207.668 68.0406 213.968 74.282C220.268 80.5234 223.807 88.9886 223.807 97.8153V159.053H128.404V97.8153C128.404 93.4448 129.273 89.117 130.961 85.0792C132.65 81.0413 135.124 77.3724 138.243 74.282C141.363 71.1916 145.066 68.7401 149.141 67.0676C153.217 65.395 157.585 64.5342 161.997 64.5342V64.5342Z" fill="#2F2E41"/>
<path d="M190.967 589.705C190.967 589.705 187.967 608.529 182.967 611.501C177.967 614.473 208.967 621.409 208.967 621.409L213.967 591.687L190.967 589.705Z" fill="#FBBEBE"/>
<path d="M227.967 374.715L238.967 387.595L233.967 432.178L229.967 520.354C229.967 520.354 237.967 596.64 229.967 598.622C221.967 600.603 185.967 599.613 186.967 594.659C187.967 589.705 188.967 585.742 190.967 578.807C192.967 571.872 188.967 547.104 188.967 547.104L193.967 519.363L175.967 399.484L227.967 374.715Z" fill="#2F2E41"/>
<path d="M191.967 608.529C191.967 608.529 180.967 606.548 179.967 608.529C178.967 610.511 159.967 631.316 156.967 631.316C153.967 631.316 131.967 651.131 154.967 652.122C177.967 653.112 215.967 635.279 215.967 635.279C215.967 635.279 210.375 610.068 210.671 611.28C210.967 612.492 191.967 613.483 191.967 608.529Z" fill="#2F2E41"/>
<path d="M179.967 562.955C179.967 562.955 207.967 593.668 208.967 596.64C209.967 599.613 224.967 596.64 224.967 596.64L230.967 576.826L225.967 569.89L197.967 547.104L179.967 562.955Z" fill="#FBBEBE"/>
<path d="M219.967 585.742L205.467 599.264C205.467 599.264 223.967 627.353 223.967 630.325C223.967 633.298 224.967 658.066 234.967 654.103C244.967 650.14 245.967 610.511 245.967 610.511C245.967 610.511 244.967 569.891 238.967 566.918C232.967 563.946 219.817 564.885 219.817 564.885C219.817 564.885 227.967 584.752 219.967 585.742Z" fill="#2F2E41"/>
<path d="M136.967 286.54C136.967 286.54 131.967 302.392 130.967 306.355C129.967 310.318 123.967 321.216 123.967 338.058C123.967 354.901 125.967 374.715 123.967 376.697C121.967 378.678 89.9671 489.641 103.967 501.53C117.967 513.419 163.967 553.048 166.967 558.002C169.967 562.955 170.967 574.844 176.967 572.863C182.967 570.881 205.967 551.067 206.967 547.104C207.967 543.141 193.967 536.205 193.967 536.205C193.967 536.205 165.967 495.585 158.967 496.576C151.967 497.567 152.967 491.622 153.967 488.65C154.967 485.678 156.967 483.696 153.967 483.696C150.967 483.696 152.967 475.771 153.967 471.808C154.967 467.845 177.967 414.345 177.967 414.345L238.967 387.595C238.967 387.595 235.967 315.271 213.967 295.457L208.967 283.568C208.967 283.568 152.967 279.605 136.967 286.54Z" fill="#2F2E41"/>
<path d="M161.967 130.004C161.967 130.004 166.967 164.679 154.967 166.661C142.967 168.642 132.967 167.652 132.967 168.642C132.967 169.633 162.967 200.346 162.967 200.346L190.967 198.364L215.967 171.614C215.967 171.614 192.967 167.652 192.967 153.781C192.967 139.911 191.967 130.004 191.967 130.004H161.967Z" fill="#FBBEBE"/>
<path opacity="0.1" d="M161.967 130.004C161.967 130.004 166.967 164.679 154.967 166.661C142.967 168.642 132.967 167.652 132.967 168.642C132.967 169.633 162.967 200.346 162.967 200.346L190.967 198.364L215.967 171.614C215.967 171.614 192.967 167.652 192.967 153.781C192.967 139.911 191.967 130.004 191.967 130.004H161.967Z" fill="black"/>
<path d="M177.467 144.369C194.588 144.369 208.467 130.619 208.467 113.656C208.467 96.6942 194.588 82.9436 177.467 82.9436C160.346 82.9436 146.467 96.6942 146.467 113.656C146.467 130.619 160.346 144.369 177.467 144.369Z" fill="#FBBEBE"/>
<path d="M149.967 163.689C149.967 163.689 110.967 168.642 107.967 181.522C104.967 194.401 127.967 274.651 130.967 281.586C133.967 288.521 132.967 293.475 132.967 293.475C137.492 290.122 142.689 287.769 148.209 286.573C153.728 285.376 159.443 285.365 164.967 286.54C183.967 290.503 210.967 288.521 210.967 288.521C210.967 288.521 219.967 251.864 221.967 247.901C223.967 243.938 231.967 222.142 231.967 216.198C231.967 210.253 243.967 185.485 243.967 185.485C243.967 185.485 237.967 167.652 215.967 168.642C215.967 168.642 206.371 164.387 203.669 167.505C200.967 170.624 185.967 184.494 166.967 178.55C147.967 172.605 149.967 163.689 149.967 163.689Z" fill="#FF6584"/>
<path d="M118.967 180.531H107.967L101.967 258.799C101.967 258.799 123.967 264.744 126.967 260.781C129.967 256.818 118.967 180.531 118.967 180.531Z" fill="#FF6584"/>
<path d="M224.967 180.531L243.967 185.485C243.967 185.485 257.967 236.012 258.967 237.003C259.967 237.994 260.967 243.938 260.967 243.938C260.967 243.938 260.967 244.929 262.967 247.901C264.967 250.873 267.967 248.892 265.967 252.855C263.967 256.818 260.967 254.836 262.967 258.799C264.967 262.762 263.967 273.66 263.967 273.66C263.967 273.66 258.967 254.836 240.967 259.79L228.967 206.29L224.967 180.531Z" fill="#FF6584"/>
<path d="M201.67 106.187H153.502L142.597 81.3549H209.849L201.67 106.187Z" fill="#2F2E41"/>
<path d="M147.183 124.356C148.47 123.987 148.707 120.932 147.712 117.533C146.718 114.134 144.869 111.677 143.583 112.047C142.296 112.416 142.059 115.471 143.053 118.87C144.047 122.27 145.896 124.726 147.183 124.356Z" fill="#FFB9B9"/>
<path d="M212.35 118.871C213.344 115.471 213.107 112.416 211.82 112.047C210.534 111.677 208.685 114.134 207.691 117.533C206.696 120.932 206.933 123.987 208.22 124.357C209.507 124.726 211.356 122.27 212.35 118.871Z" fill="#FFB9B9"/>
<path d="M204.159 249.802C214.1 249.802 222.159 241.818 222.159 231.969C222.159 222.12 214.1 214.135 204.159 214.135C194.218 214.135 186.159 222.12 186.159 231.969C186.159 241.818 194.218 249.802 204.159 249.802Z" fill="#8E7C6D"/>
<path opacity="0.1" d="M204.159 249.802C214.1 249.802 222.159 241.818 222.159 231.969C222.159 222.12 214.1 214.135 204.159 214.135C194.218 214.135 186.159 222.12 186.159 231.969C186.159 241.818 194.218 249.802 204.159 249.802Z" fill="black"/>
<path d="M204.159 248.033C213.114 248.033 220.374 240.841 220.374 231.969C220.374 223.096 213.114 215.904 204.159 215.904C195.204 215.904 187.944 223.096 187.944 231.969C187.944 240.841 195.204 248.033 204.159 248.033Z" fill="#8E7C6D"/>
<path opacity="0.1" d="M203.444 222.887C203.444 222.887 199.313 220.283 195.369 222.887C194.145 223.708 193.29 224.968 192.985 226.402C192.721 227.551 192.723 228.744 192.991 229.892C193.259 231.041 193.786 232.114 194.532 233.032L203.453 244.196C203.759 244.585 204.169 244.881 204.637 245.05C205.105 245.219 205.611 245.254 206.098 245.151L206.156 245.138C206.508 245.052 206.84 244.895 207.129 244.678C207.418 244.46 207.659 244.186 207.837 243.873L214.042 233.078C215.19 231.112 215.66 228.83 215.382 226.575C215.318 225.331 214.854 224.139 214.058 223.174C213.261 222.209 212.174 221.522 210.956 221.213C210.956 221.213 207.388 219.725 203.444 222.887Z" fill="black"/>
<path d="M203.486 223.516C203.486 223.516 199.611 221.073 195.911 223.516C194.763 224.286 193.961 225.468 193.675 226.813C193.427 227.891 193.429 229.01 193.68 230.087C193.932 231.164 194.426 232.171 195.126 233.032L203.495 243.505C203.782 243.87 204.167 244.148 204.605 244.306C205.044 244.464 205.519 244.497 205.975 244.401L206.03 244.388C206.361 244.308 206.671 244.161 206.943 243.957C207.214 243.753 207.44 243.496 207.607 243.202L213.427 233.076C214.504 231.232 214.946 229.09 214.685 226.976C214.625 225.808 214.19 224.69 213.443 223.785C212.695 222.88 211.676 222.235 210.533 221.945C210.533 221.945 207.186 220.549 203.486 223.516Z" fill="#F9A826"/>
<path opacity="0.1" d="M203.637 227.706C203.081 227.372 202.444 227.196 201.794 227.196C201.145 227.196 200.507 227.372 199.952 227.706C199.393 228.08 199.003 228.655 198.863 229.309C198.743 229.834 198.744 230.379 198.866 230.903C198.988 231.427 199.229 231.916 199.569 232.335C199.569 232.335 204.397 237.967 204.848 237.867L204.875 237.861C205.2 237.783 208.474 232.357 208.474 232.357C208.998 231.459 209.212 230.418 209.085 229.389C209.056 228.821 208.844 228.277 208.481 227.836C208.118 227.396 207.621 227.082 207.065 226.941C206.476 226.758 205.849 226.733 205.247 226.867C204.645 227.001 204.09 227.29 203.637 227.706V227.706Z" fill="black"/>
<path d="M188.159 259.709C198.1 259.709 206.159 251.725 206.159 241.876C206.159 232.027 198.1 224.043 188.159 224.043C178.218 224.043 170.159 232.027 170.159 241.876C170.159 251.725 178.218 259.709 188.159 259.709Z" fill="#8E7C6D"/>
<path opacity="0.1" d="M188.159 259.709C198.1 259.709 206.159 251.725 206.159 241.876C206.159 232.027 198.1 224.043 188.159 224.043C178.218 224.043 170.159 232.027 170.159 241.876C170.159 251.725 178.218 259.709 188.159 259.709Z" fill="black"/>
<path d="M188.159 257.941C197.114 257.941 204.374 250.748 204.374 241.876C204.374 233.004 197.114 225.811 188.159 225.811C179.204 225.811 171.944 233.004 171.944 241.876C171.944 250.748 179.204 257.941 188.159 257.941Z" fill="#8E7C6D"/>
<path opacity="0.1" d="M187.444 232.795C187.444 232.795 183.313 230.19 179.369 232.795C178.145 233.616 177.29 234.876 176.985 236.309C176.721 237.458 176.723 238.652 176.991 239.8C177.259 240.948 177.786 242.021 178.532 242.939L187.453 254.104C187.759 254.493 188.169 254.789 188.637 254.957C189.105 255.126 189.611 255.161 190.098 255.059L190.156 255.045C190.508 254.959 190.84 254.803 191.129 254.585C191.418 254.368 191.659 254.094 191.837 253.78L198.042 242.986C199.19 241.02 199.66 238.737 199.382 236.483C199.318 235.238 198.854 234.046 198.058 233.081C197.261 232.116 196.174 231.429 194.956 231.12C194.956 231.12 191.388 229.632 187.444 232.795Z" fill="black"/>
<path d="M187.486 233.423C187.486 233.423 183.611 230.98 179.911 233.423C178.763 234.193 177.961 235.375 177.675 236.72C177.427 237.798 177.429 238.917 177.68 239.995C177.932 241.072 178.426 242.078 179.126 242.939L187.495 253.413C187.782 253.778 188.167 254.055 188.605 254.213C189.044 254.372 189.519 254.405 189.975 254.308L190.03 254.296C190.361 254.215 190.671 254.068 190.943 253.864C191.214 253.66 191.44 253.403 191.607 253.109L197.427 242.983C198.504 241.139 198.946 238.998 198.685 236.883C198.625 235.715 198.19 234.597 197.443 233.692C196.695 232.787 195.676 232.142 194.533 231.853C194.533 231.853 191.186 230.456 187.486 233.423Z" fill="#F9A826"/>
<path opacity="0.1" d="M187.637 237.613C187.081 237.279 186.444 237.103 185.794 237.103C185.145 237.103 184.507 237.279 183.952 237.613C183.393 237.988 183.003 238.563 182.863 239.217C182.743 239.741 182.744 240.286 182.866 240.81C182.988 241.334 183.229 241.824 183.569 242.243C183.569 242.243 188.397 247.874 188.848 247.774L188.875 247.768C189.2 247.69 192.474 242.264 192.474 242.264C192.998 241.367 193.212 240.325 193.085 239.296C193.056 238.728 192.844 238.184 192.481 237.744C192.118 237.303 191.621 236.99 191.065 236.849C190.476 236.666 189.849 236.64 189.247 236.774C188.645 236.908 188.09 237.198 187.637 237.613V237.613Z" fill="black"/>
<path d="M174.433 197.291C173.995 196.575 172.464 196.593 172.464 196.593C171.069 198.646 167.718 196.465 167.718 196.465C165.229 197.569 163.71 194.053 163.71 194.053C160.361 193.557 160.878 190.072 160.878 190.072C159.212 189.74 159.679 186.755 159.679 186.755C159.679 186.755 160.604 186.004 160.149 185.454C159.877 184.811 159.78 184.109 159.867 183.417C154.904 181.921 149.575 182.132 144.748 184.016C139.921 185.9 135.88 189.347 133.281 193.796C130.682 198.244 129.679 203.433 130.434 208.518C131.19 213.604 133.659 218.286 137.442 221.805C141.224 225.323 146.096 227.47 151.267 227.896C156.437 228.323 161.601 227.004 165.918 224.154C170.236 221.304 173.453 217.091 175.047 212.199C176.641 207.308 176.518 202.026 174.698 197.213C174.58 197.345 174.488 197.381 174.433 197.291Z" fill="#8E7C6D"/>
<path opacity="0.1" d="M174.433 197.291C173.995 196.575 172.464 196.593 172.464 196.593C171.069 198.646 167.718 196.465 167.718 196.465C165.229 197.569 163.71 194.053 163.71 194.053C160.361 193.557 160.878 190.072 160.878 190.072C159.212 189.74 159.679 186.755 159.679 186.755C159.679 186.755 160.604 186.004 160.149 185.454C159.877 184.811 159.78 184.109 159.867 183.417C154.904 181.921 149.575 182.132 144.748 184.016C139.921 185.9 135.88 189.347 133.281 193.796C130.682 198.244 129.679 203.433 130.434 208.518C131.19 213.604 133.659 218.286 137.442 221.805C141.224 225.323 146.096 227.47 151.267 227.896C156.437 228.323 161.601 227.004 165.918 224.154C170.236 221.304 173.453 217.091 175.047 212.199C176.641 207.308 176.518 202.026 174.698 197.213C174.58 197.345 174.488 197.381 174.433 197.291Z" fill="black"/>
<path d="M173.07 197.201C172.653 196.52 171.197 196.537 171.197 196.537C169.871 198.489 166.684 196.416 166.684 196.416C164.316 197.465 162.872 194.121 162.872 194.121C159.687 193.649 160.179 190.335 160.179 190.335C158.594 190.02 159.039 187.181 159.039 187.181C159.039 187.181 159.918 186.466 159.485 185.944C159.227 185.332 159.135 184.664 159.217 184.007C154.497 182.583 149.429 182.784 144.838 184.576C140.248 186.368 136.404 189.646 133.932 193.877C131.461 198.108 130.506 203.043 131.225 207.879C131.943 212.715 134.292 217.169 137.889 220.515C141.486 223.861 146.121 225.903 151.038 226.308C155.955 226.714 160.866 225.46 164.972 222.749C169.078 220.039 172.138 216.032 173.654 211.38C175.17 206.727 175.053 201.704 173.322 197.126C173.21 197.252 173.123 197.286 173.07 197.201Z" fill="#8E7C6D"/>
<path d="M150.226 195.88C150.226 195.88 146.454 193.502 142.853 195.88C141.735 196.63 140.954 197.781 140.676 199.089C140.435 200.138 140.437 201.228 140.681 202.276C140.926 203.325 141.407 204.305 142.088 205.143L150.234 215.336C150.513 215.692 150.888 215.962 151.315 216.116C151.742 216.27 152.204 216.302 152.648 216.208L152.702 216.196C153.024 216.117 153.326 215.975 153.59 215.776C153.854 215.577 154.074 215.327 154.237 215.041L159.902 205.185C160.95 203.39 161.379 201.306 161.125 199.248C161.067 198.111 160.643 197.023 159.916 196.142C159.189 195.261 158.197 194.634 157.084 194.352C157.084 194.352 153.826 192.993 150.226 195.88Z" fill="#F9A826"/>
<path opacity="0.1" d="M150.226 195.88C150.226 195.88 146.454 193.502 142.853 195.88C141.735 196.63 140.954 197.781 140.676 199.089C140.435 200.138 140.437 201.228 140.681 202.276C140.926 203.325 141.407 204.305 142.088 205.143L150.234 215.336C150.513 215.692 150.888 215.962 151.315 216.116C151.742 216.27 152.204 216.302 152.648 216.208L152.702 216.196C153.024 216.117 153.326 215.975 153.59 215.776C153.854 215.577 154.074 215.327 154.237 215.041L159.902 205.185C160.95 203.39 161.379 201.306 161.125 199.248C161.067 198.111 160.643 197.023 159.916 196.142C159.189 195.261 158.197 194.634 157.084 194.352C157.084 194.352 153.826 192.993 150.226 195.88Z" fill="black"/>
<path d="M150.264 196.455C150.264 196.455 146.726 194.224 143.348 196.455C142.299 197.158 141.567 198.237 141.306 199.465C141.08 200.449 141.081 201.471 141.311 202.454C141.54 203.438 141.992 204.357 142.631 205.143L150.272 214.706C150.534 215.039 150.885 215.292 151.286 215.437C151.686 215.581 152.12 215.611 152.537 215.523L152.587 215.512C152.889 215.438 153.172 215.304 153.42 215.118C153.668 214.931 153.874 214.697 154.027 214.429L159.341 205.183C160.324 203.499 160.727 201.544 160.489 199.613C160.434 198.547 160.037 197.526 159.355 196.7C158.673 195.874 157.742 195.285 156.698 195.02C156.698 195.02 153.642 193.746 150.264 196.455Z" fill="#F9A826"/>
<path opacity="0.1" d="M150.402 200.28C149.894 199.975 149.313 199.814 148.719 199.814C148.126 199.814 147.544 199.975 147.037 200.28C146.527 200.622 146.17 201.147 146.043 201.744C145.933 202.223 145.934 202.72 146.046 203.199C146.157 203.677 146.377 204.125 146.688 204.507C146.688 204.507 151.095 209.649 151.508 209.557L151.532 209.552C152.715 207.934 153.812 206.257 154.818 204.526C155.296 203.707 155.492 202.756 155.376 201.817C155.35 201.298 155.156 200.801 154.825 200.399C154.493 199.997 154.04 199.711 153.532 199.582C152.994 199.415 152.422 199.391 151.872 199.514C151.323 199.636 150.815 199.901 150.402 200.28Z" fill="black"/>
<path opacity="0.1" d="M139.649 208.406L140.131 209.202L141.096 210.796L141.418 211.911L140.774 212.867L141.579 214.779L141.9 215.895L141.257 216.533L142.544 217.489" fill="black"/>
<path opacity="0.1" d="M163.292 201.394V202.669L162.488 204.741L162.005 205.856L162.809 207.29L163.131 208.246L164.418 208.724L164.9 209.521V211.434" fill="black"/>
<path opacity="0.1" d="M171.495 202.669L170.208 203.466C170.208 203.466 169.565 203.785 169.565 203.944V205.219" fill="black"/>
<path opacity="0.1" d="M165.704 198.207L166.026 199.8L165.704 200.916" fill="black"/>
<path opacity="0.1" d="M166.991 212.549L166.026 213.983L164.9 214.939V215.577L165.544 216.373V217.329L165.061 218.286" fill="black"/>
<path opacity="0.1" d="M157.823 185.459H156.215L154.928 186.575L152.837 187.691L151.872 188.487V188.806L149.781 189.921L149.138 191.036" fill="black"/>
<path opacity="0.1" d="M140.453 188.168L139.005 191.037L138.523 192.152L137.397 193.586C137.397 193.586 136.593 195.02 136.432 195.18C136.021 195.383 135.59 195.543 135.145 195.658L136.754 197.251" fill="black"/>
<path opacity="0.1" d="M134.019 199.163L133.697 201.235L134.019 202.51V204.741L133.054 208.883L134.019 209.999L135.145 211.434" fill="black"/>
<path opacity="0.1" d="M136.432 200.119L137.397 200.598L138.04 202.67L139.327 202.351L139.97 203.466" fill="black"/>
<path opacity="0.1" d="M154.124 220.835L156.697 220.517L157.823 219.401H159.432" fill="black"/>
<path opacity="0.1" d="M138.523 217.489L139.488 218.605L141.096 219.082L142.222 219.401L142.544 221.154" fill="black"/>
<path opacity="0.1" d="M157.502 212.071L158.628 211.274L159.11 209.999L160.075 209.839L160.558 208.246" fill="black"/>
<path d="M104.967 250.873L101.967 258.799C101.967 258.799 99.9671 284.558 111.967 283.568C123.967 282.577 130.967 267.716 130.967 267.716C130.967 267.716 123.967 248.892 115.967 250.873C107.967 252.855 104.967 250.873 104.967 250.873Z" fill="#FF6584"/>
<path d="M114.967 255.827C114.967 255.827 108.967 273.66 115.967 273.66C122.967 273.66 135.967 262.762 136.967 253.846C137.967 244.929 155.967 211.244 142.967 214.216C129.967 217.188 123.967 241.957 123.967 241.957L114.967 255.827Z" fill="#FBBEBE"/>
<path d="M257.967 256.818L264.214 267.161C264.214 267.161 266.967 286.54 252.967 286.54C238.967 286.54 218.967 267.716 218.967 267.716C218.967 267.716 208.967 263.753 202.967 264.744C196.967 265.734 163.967 264.744 177.967 247.901C191.967 231.059 215.967 247.901 215.967 247.901L240.967 259.79L253.967 252.855L257.967 256.818Z" fill="#FBBEBE"/>
<path d="M249.467 243.443L239.467 259.295C239.467 259.295 262.467 262.267 264.467 267.221C266.467 272.174 255.467 241.461 255.467 241.461L249.467 243.443Z" fill="#FF6584"/>
</g>
<defs>
<clipPath id="clip0_3_497">
<rect width="810" height="670.807" fill="white" transform="translate(0.15918 0.0579834)"/>
</clipPath>
</defs>
</svg>
