<svg width="30" height="31" viewBox="0 0 30 31" fill="none" xmlns="http://www.w3.org/2000/svg">
<g clip-path="url(#clip0_103_102)">
<path d="M0 15.959C0 22.3627 4.01375 27.8302 9.6625 29.9815C9.525 28.8102 9.37875 26.879 9.69375 25.524C9.965 24.359 11.445 18.1015 11.445 18.1015C11.445 18.1015 10.9987 17.2077 10.9987 15.884C10.9987 13.809 12.2013 12.259 13.7 12.259C14.975 12.259 15.59 13.2152 15.59 14.3615C15.59 15.6427 14.7738 17.5577 14.3525 19.334C14.0013 20.8202 15.0988 22.0327 16.5638 22.0327C19.2175 22.0327 21.2587 19.234 21.2587 15.194C21.2587 11.6177 18.6887 9.11898 15.02 9.11898C10.7725 9.11898 8.27875 12.3052 8.27875 15.599C8.27875 16.8827 8.7725 18.2577 9.39 19.0065C9.44264 19.063 9.47984 19.1322 9.49801 19.2073C9.51619 19.2824 9.51472 19.3609 9.49375 19.4352C9.38 19.9077 9.1275 20.9215 9.07875 21.129C9.0125 21.4015 8.8625 21.4602 8.57875 21.3277C6.71375 20.4602 5.54875 17.734 5.54875 15.544C5.54875 10.8327 8.97 6.50773 15.4138 6.50773C20.5938 6.50773 24.62 10.199 24.62 15.1315C24.62 20.2777 21.3762 24.4202 16.8712 24.4202C15.3575 24.4202 13.9362 23.6327 13.4487 22.704C13.4487 22.704 12.7 25.5565 12.5188 26.254C12.1663 27.609 11.1887 29.324 10.5825 30.2977C11.98 30.7277 13.4625 30.959 15 30.959C23.2837 30.959 30 24.2427 30 15.959C30 7.67523 23.2837 0.958984 15 0.958984C6.71625 0.958984 0 7.67523 0 15.959Z" fill="black"/>
</g>
<defs>
<clipPath id="clip0_103_102">
<rect width="30" height="30" fill="white" transform="translate(0 0.958984)"/>
</clipPath>
</defs>
</svg>
