<svg width="30" height="31" viewBox="0 0 30 31" fill="none" xmlns="http://www.w3.org/2000/svg">
<path d="M29.5538 6.46346C28.51 6.92596 27.3888 7.23846 26.21 7.37971C27.4263 6.65195 28.3362 5.50654 28.77 4.15721C27.6273 4.83595 26.3767 5.3137 25.0725 5.56971C24.1955 4.63329 23.0338 4.01262 21.7679 3.80405C20.502 3.59549 19.2026 3.8107 18.0716 4.41628C16.9405 5.02185 16.041 5.98391 15.5127 7.15309C14.9844 8.32227 14.8569 9.63315 15.15 10.8822C12.8346 10.766 10.5695 10.1641 8.50179 9.11584C6.43404 8.06754 4.60982 6.59616 3.14751 4.79721C2.64751 5.65971 2.36001 6.65971 2.36001 7.72471C2.35946 8.68346 2.59556 9.62751 3.04736 10.4731C3.49917 11.3187 4.15272 12.0398 4.95001 12.5722C4.02536 12.5428 3.12111 12.2929 2.31251 11.8435V11.9185C2.31242 13.2631 2.77756 14.5664 3.62899 15.6072C4.48043 16.648 5.66573 17.3621 6.98376 17.6285C6.12599 17.8606 5.22669 17.8948 4.35376 17.7285C4.72564 18.8855 5.45001 19.8972 6.42547 20.6221C7.40094 21.347 8.57866 21.7487 9.79376 21.771C7.73106 23.3902 5.18362 24.2686 2.56126 24.2647C2.09674 24.2648 1.63261 24.2377 1.17126 24.1835C3.83311 25.8949 6.93169 26.8032 10.0963 26.7997C20.8088 26.7997 26.665 17.9272 26.665 10.2322C26.665 9.98221 26.6588 9.72971 26.6475 9.47971C27.7866 8.65593 28.7699 7.63583 29.5513 6.46721L29.5538 6.46346V6.46346Z" fill="black"/>
</svg>
