<svg width="30" height="31" viewBox="0 0 30 31" fill="none" xmlns="http://www.w3.org/2000/svg">
<g clip-path="url(#clip0_103_99)">
<path d="M30.0008 16.0518C30.0008 7.71551 23.2845 0.958008 15.0008 0.958008C6.71326 0.959883 -0.00299072 7.71551 -0.00299072 16.0536C-0.00299072 23.5855 5.48326 29.8293 12.6533 30.9618V20.4149H8.84701V16.0536H12.657V12.7255C12.657 8.94363 14.8976 6.85488 18.3233 6.85488C19.9658 6.85488 21.6814 7.14926 21.6814 7.14926V10.8618H19.7895C17.9276 10.8618 17.3464 12.0261 17.3464 13.2205V16.0518H21.5051L20.8414 20.413H17.3445V30.9599C24.5145 29.8274 30.0008 23.5836 30.0008 16.0518Z" fill="black"/>
</g>
<defs>
<clipPath id="clip0_103_99">
<rect width="30" height="30" fill="white" transform="translate(0 0.958984)"/>
</clipPath>
</defs>
</svg>
