<svg width="50" height="50" viewBox="0 0 50 50" fill="none" xmlns="http://www.w3.org/2000/svg">
<path d="M10.4166 14.5833H39.1458C39.7279 14.5833 40.3036 14.7053 40.8357 14.9414C41.3678 15.1776 41.8445 15.5226 42.2351 15.9542C42.6257 16.3858 42.9215 16.8945 43.1035 17.4474C43.2855 18.0004 43.3495 18.5853 43.2916 19.1646L42.0416 31.6646C41.9388 32.6927 41.4577 33.646 40.6916 34.3393C39.9254 35.0327 38.9291 35.4166 37.8958 35.4166H18C17.0364 35.417 16.1024 35.0834 15.3571 34.4726C14.6119 33.8618 14.1013 33.0116 13.9125 32.0666L10.4166 14.5833Z" stroke="black" stroke-width="1.33333" stroke-linejoin="round"/>
<path d="M10.4166 14.5833L8.72913 7.82708C8.61627 7.37657 8.35611 6.97668 7.98998 6.69095C7.62384 6.40521 7.17273 6.25001 6.70829 6.25H4.16663" stroke="black" stroke-width="1.33333" stroke-linecap="round" stroke-linejoin="round"/>
<path d="M16.6666 43.75H20.8333" stroke="black" stroke-width="1.33333" stroke-linecap="round" stroke-linejoin="round"/>
<path d="M33.3333 43.75H37.4999" stroke="black" stroke-width="1.33333" stroke-linecap="round" stroke-linejoin="round"/>
</svg>
